<?xml version="1.0" encoding="UTF-8"?>
<svg xmlns="http://www.w3.org/2000/svg" viewBox="0 0 1095 1095" width="1095" height="1095">
<path d="M661.5 104.94C662.23 105.58 662.65 105.55 663.21 106.45C664.11 107.88 663.47 110.95 663.42 112.5C663.23 117.5 663.02 122.51 662.71 127.5C661.32 150.28 659.29 173.21 656.48 195.87C647.89 265.06 639.87 334.33 631.26 403.52C628.65 424.5 626.45 445.59 623.43 466.5C620.26 468.57 616.59 469.59 613.52 472C610.42 474.44 608.58 478.02 605.5 480.25C603 479.33 600.49 478.42 597.99 477.5C600.89 480.8 605.03 481.6 608 484.5C611.54 487.97 610.67 492.41 615.95 494.51C622.78 497.21 630.06 495.73 635.5 497.8C638.18 502.25 638.14 510.21 634.5 514.08C631.66 513.64 629.88 512.37 627.26 511.28C622.37 509.24 615.74 508.57 610.5 509.04C606.48 509.4 603.8 512.7 599.96 513.46C597.91 513.87 595.58 513.44 593.5 513.4C600.68 523.47 593.45 535.24 590.24 545.65C587.8 553.59 585.13 561.61 583.36 569.73C582.58 573.3 582.78 579.13 580.64 582.13C578.5 585.13 571.65 588.67 568.49 590.98C559.1 597.84 549.64 604.64 540.5 611.83C539.41 608.37 540.53 594.32 542.29 590.76C543.16 589 545.8 587.97 547.29 586.81C550.66 584.21 553.7 581.15 556.37 577.84C566.52 565.23 572.52 550.96 572.19 534.5C571.95 522.76 568.82 513.98 555.5 516.47C556.41 512.64 559.09 507.13 562.5 505.01C563.85 505.62 565.34 507.24 566.69 507.58C567.89 507.88 575.77 507.69 577.16 507.5C574.8 505.26 572.01 504.86 569.31 503.17C561.16 498.08 551.29 492.15 541.45 491.33C536.6 490.92 531.94 494.13 527.5 493.24C524.8 488.47 529.11 475.97 535.59 475.2C536.93 475.04 544.38 478.3 547.55 478.72C561.04 480.5 575.94 480.28 586.93 471.5C582.78 472.65 578.64 473.8 574.5 474.96C573.97 471.22 574.94 467.97 573.37 464.17C572.03 460.92 567.48 456.86 567.32 453.52C567.23 451.63 568.35 449.3 568.77 447.44C570.6 439.34 572.69 431.3 574.61 423.22C579.58 402.26 584.7 381.34 589.73 360.39C602.9 305.61 616.65 250.97 630.77 196.43C636.62 173.85 643.34 151.42 650.73 129.3C652.78 123.17 656.57 108.56 661.5 104.94ZM627.7 286.5C626.26 289.4 625.54 294.51 624.76 298.36C622.82 307.99 620.58 317.57 618.56 327.19C612.35 356.88 606.58 386.75 599.68 416.29C597.19 426.94 595.41 437.77 592.77 448.39C591.14 454.97 588.06 463.54 589.5 470.05C595.48 468.01 594.94 463.16 596.11 457.51C598.3 446.88 600.09 436.16 602.15 425.51C608.07 394.91 613.71 364.25 619.3 333.57C621.99 318.76 626.94 301.26 627.7 286.5ZM684.5 374.44C701.02 372.76 718.07 375.03 734.51 376.72C774.15 380.81 820.4 390.75 853.55 413.98C885.64 436.46 899.98 472.19 877.37 507.85C861.83 532.38 832.55 546.38 805.44 553.81C785.41 559.3 762.25 562.04 745.7 575.5C749.34 574.86 752.22 572.76 755.6 571.11C761.72 568.13 770.3 564.29 777.08 564.5C771.71 567.59 766.18 569.91 761.17 573.66C747.6 583.82 736.34 605.47 751.5 619.26C751.25 613.77 744.97 608.58 748.5 602.68C755.06 616.65 772.78 622 785.22 629.32C805.99 641.56 825.87 659.43 831.56 683.84C837.07 707.46 825.6 728.94 811.16 746.7C781.35 783.34 731.95 809.67 687.75 824.32C674.83 828.6 661.56 832.29 648.12 834.54C643.5 835.31 638.08 836.97 633.5 836.45C648.65 831.17 664.48 827.78 679.59 822.16C716.72 808.35 753.4 788.45 780.48 758.99C800.21 737.53 814.69 709.15 803.55 679.92C794.13 655.19 768.51 641.22 748.91 625.56C736.8 615.88 724.99 604.97 728.36 587.73C731.84 569.91 750.03 560.55 764.75 553.28C793.83 538.92 828.02 528.68 850.64 504.17C855.25 499.17 859.83 493.43 862.74 487.25C873.69 463.95 861.81 440.23 844.01 424.49C814.94 398.76 768.23 385.67 730.5 380.16C720.5 378.7 710.54 377.27 700.5 376.14C695.28 375.54 689.51 375.62 684.5 374.44ZM485.19 407.5C470.01 410.13 454.76 412.15 439.66 415.32C410.13 421.53 380.54 432.34 354.91 448.43C337.84 459.15 319.09 474.52 317.93 496.5C317.19 510.35 328.17 521.51 338.9 528.58C361.18 543.24 387.87 550.79 413.63 556.71C420.66 558.32 427.66 560.1 434.71 561.65C438.92 562.58 443.16 562.81 445.82 566.5C444.26 570.73 438.71 571.46 434.5 570.98C432.02 570.7 429.72 569.79 427.29 569.39C417.99 567.84 408.56 567.21 399.29 565.35C370.01 559.5 337.52 553.83 312.93 535.54C301.52 527.05 291.05 514.7 292.18 499.5C293.86 476.88 312.92 460.78 330.34 448.87C361.69 427.43 398.87 415.99 436.14 410.54C451.98 408.22 469.2 405.82 485.19 407.5ZM589.5 575.01C587.87 569.88 590.27 563.55 591.73 558.35C595.31 545.68 598.95 532.42 603.5 520.11C608.6 518.58 614.17 518.65 619.43 517.71C621.88 517.27 624.9 515.97 627.38 516.28C631.54 516.8 634 519.61 638.5 518.3C639.62 515.03 640.73 511.77 641.85 508.5C651.41 504.85 661.55 502.13 671.25 498.69C674.88 497.4 679.49 494.43 683.41 495.16C688.16 496.04 688.33 502.43 687.5 506.03C685.4 515.16 677.71 522.5 670.71 528.17C664.88 532.9 658.18 536.81 651.26 539.72C648.82 540.75 646.06 540.98 643.72 542.17C638.42 544.84 633.35 548.66 628.28 551.78C621.41 556 614.15 559.56 607.27 563.74C601.28 567.38 595.58 571.58 589.5 575.01ZM488.9 654.5C494.88 653.96 500.62 648.96 505.5 645.72C510.9 651.82 516.89 668.28 516.62 676.48C516.5 680.25 514.66 683.61 514.86 687.5C515.14 693.06 519.72 695.91 519.55 701.41C519.01 719.48 513.51 737.48 504.79 753.29C501.96 758.43 496.85 762.8 494.5 767.94C500.17 765.26 504.93 759.15 508.6 754.14C520.64 737.67 523.49 718.83 525.5 699.14C528.23 699.41 530.75 700.56 533.51 700.79C536.36 701.03 539.18 700.4 541.97 700.5C539.66 704.38 535.53 707.11 534.28 711.71C530.88 724.21 541.07 727.85 550.8 729.5C551.67 735.2 551.08 746.32 549.46 751.97C548.03 756.99 544.02 761.02 542.53 766.05C541.62 769.1 542.46 772.26 541.78 775.35C541.23 777.9 539.22 779.75 538.5 781.88C540.02 780.6 541.53 779.33 543.05 778.05C543.05 780.06 543.05 782.07 543.05 784.08C546.85 778.35 546.48 771 549.3 764.76C550.86 761.32 553.71 759.21 556.15 756.5C555.22 754.2 554.57 752.03 554.64 749.5C554.73 746.13 557.61 732.53 559.78 730.25C561.74 728.2 566.62 727.58 569.25 726.68C577.05 724.01 584.84 720.94 592.5 717.87C600.03 726.26 598.6 738.18 613.29 737.5C605.64 733.67 601.05 725.6 598.75 717.5C602.19 715.53 606.64 715.19 610.52 714.07C615.02 712.77 619.13 710.89 623.16 708.5C617.94 707.6 611.83 709.95 606.42 710.65C602.19 711.2 597.75 710.55 593.59 711.21C588.62 712.01 583.17 715.12 578.41 716.85C572.27 719.09 565.86 720.52 559.5 721.98C552.69 723.54 540.06 725.69 539.62 715.5C539.28 707.42 553.35 700.01 559.5 696C568.08 690.4 577.36 684.12 587.01 680.51C595.91 677.18 605.3 674.94 614.25 671.7C624.48 667.99 633.95 660.98 641.5 673C642.58 674.72 643.37 676.6 644 678.53C650.43 698.22 632.69 716.78 620.86 730.34C618.58 732.96 615.56 735.26 613.44 737.93C603.47 750.46 594.33 764.06 583.8 776.28C574.95 786.56 564.4 795.78 554.18 804.66C544.46 813.1 533.3 823.38 520.82 827.4C515.14 829.23 508.62 829.31 502.74 828.58C499.65 828.19 496.95 827.21 493.93 827.5C500.77 830.76 507.98 830.36 514.87 832.5C505.76 843.41 497.75 855.31 489.02 866.54C485.5 871.07 482.22 876.86 477.5 880.12C442.66 865.83 401.33 829.73 388.7 793.5C391.24 789.2 395.12 785.67 398.44 781.93C405.54 773.91 414.62 764.14 418.52 754.05C422.01 745.05 423.13 734.93 425.12 725.52C429.24 706.01 434.24 686.69 438.61 667.24C440.87 657.19 442.28 646.11 446.02 636.51C450.41 625.28 461.96 617.11 469.76 608.27C477.48 599.52 484.7 590.45 491.43 580.91C495.24 575.5 498.73 568.62 503.68 564.17C507.98 560.32 514.19 557.76 519.03 554.53C529 547.87 537.3 539.67 545.62 531.13C548.78 527.88 553.72 521.63 558.55 521.16C563.58 520.67 565.86 526.63 566.67 530.7C568.72 540.92 564.99 551.89 560.48 560.96C555.9 570.16 548.82 578.91 540.86 585.39C537.49 588.13 532.09 589.58 529.42 592.92C526.03 597.17 524.4 603.48 521.74 608.26C512.29 625.23 503.89 641.78 488.9 654.5ZM633.5 610.87C631.66 610.13 629.54 608.91 627.52 609.02C623.28 609.25 613.26 616.36 609.23 618.69C592.29 628.5 574.59 636.86 556.26 643.71C547.86 646.85 537.07 651.86 530.59 642.9C529.3 641.11 527.55 638.62 527.28 636.38C526.55 630.36 541.42 619.29 545.87 615.4C561.41 601.81 582.34 587.33 600 576.49C607.07 572.15 614.72 564.9 623.5 565.21C642.64 565.86 644.47 586.81 639.35 600.79C638.02 604.4 636.44 608.39 633.5 610.87ZM745.13 577.5C742.94 577.77 742.81 577.82 742.5 580.09C743.38 579.22 744.26 578.36 745.13 577.5ZM534.5 598.91C534.98 603.4 534.67 615.23 532.78 619.24C530.76 623.53 525.38 626.2 523.05 630.59C518.75 638.72 525.16 649.52 533.24 652.31C537.15 653.65 541.39 652.8 545.26 653.5C537.67 659.73 530.09 665.97 522.5 672.2C520.54 668.34 520.09 663.85 518.7 659.73C516.78 654.03 510.97 644.4 511.77 638.51C512.33 634.34 516.63 629.78 518.81 626.3C524.38 617.42 528.79 607.61 534.5 598.91ZM635.5 661.01C631.41 660.27 630.83 659.94 628.21 657.5C620.13 662.25 612.09 667.64 603.08 670.54C599.32 671.76 595.36 673.08 591.44 673.71C589.33 674.05 587.03 673.89 584.99 674.52C581.41 675.62 577.83 678.29 574.49 680C565.68 684.48 556.72 689.49 547.42 692.87C540.36 695.44 522.96 697.51 520.36 687.24C519.46 683.68 522.35 681.35 524.59 679.08C529.57 674.01 534.99 669.44 540.56 665.04C551.86 656.11 564.75 647.6 577.65 641.18C585.81 637.12 594.53 634.43 602.59 630.07C608.68 626.78 622.68 615.09 628.5 614.86C633.21 614.67 636.95 618.43 639.8 621.72C650.02 633.5 644.52 650.24 635.5 661.01ZM391.71 780.5C389.98 782.74 388.24 784.98 386.5 787.23C383.73 784.02 381.67 781.84 377.64 784.5C376.5 794.54 389.78 815.43 395.67 823.79C416.15 852.9 446 879.99 480.69 890.72C486.13 892.4 491.59 892.59 497.07 893.5C496.2 898.4 491.76 902.31 488.68 906.21C483.7 912.53 479.47 919.43 476.44 926.9C475.12 930.16 474.22 937.86 470.82 939.35C467.25 940.91 460.34 939.32 456.5 939.09C442.68 938.27 428.3 935.67 415.65 929.83C402.48 923.75 389.76 917.14 378.13 908.38C352.1 888.78 330.29 858.53 323 826.5C322.24 823.13 320.53 817.47 323.05 814.57C325.18 812.14 338.3 807.19 342.28 804.77C348.58 800.94 354.94 796.89 360.45 791.95C370.52 782.92 376.72 771.41 391.71 780.5ZM492.5 870.28C495.91 874.9 499.01 881.16 497.5 886.87C492.69 885.41 487.87 883.96 483.06 882.5C486.21 878.43 489.35 874.35 492.5 870.28Z" fill="#3e4346" fill-rule="evenodd" stroke="#3e4346" stroke-width="0.25" stroke-linejoin="round"/>
</svg>