<?xml version="1.0" encoding="UTF-8"?>
<svg xmlns="http://www.w3.org/2000/svg" viewBox="0 0 1095 1095" width="1095" height="1095">
<path d="M0.25 0.25C365.08 0.25 729.92 0.25 1094.75 0.25C1094.75 365.08 1094.75 729.92 1094.75 1094.75C729.92 1094.75 365.08 1094.75 0.25 1094.75C0.25 729.92 0.25 365.08 0.25 0.25ZM839.5 327.84C839.66 323.99 837.04 319.77 835.37 316.17C831.21 307.19 826.78 298.32 821.62 289.87C800.74 255.62 774.42 226.36 742.68 201.88C625.03 111.17 450.68 116.69 338.82 214.34C312 237.75 289.1 265.11 271.73 296.25C267.77 303.36 257.6 319.9 257.5 327.38C267.18 313.35 276.63 299.21 287.55 286.09C316.65 251.13 351.82 221.38 391.27 198.75C416.29 184.41 443.54 174.11 471.32 166.71C494.78 160.47 519.22 157.05 543.5 156.75C668.08 155.18 773.47 225.57 839.5 327.84ZM662.5 352.35C674.61 342.8 684.09 329.29 689.39 314.84C690.59 311.56 691.08 307.94 692.31 304.72C692.91 303.16 694.35 302.14 695.37 300.85C698.63 296.72 700.2 290.49 698.06 285.49C696.4 281.61 692.3 279 689.21 276.31C684.88 272.55 681.02 268.12 675.63 265.81C667.34 262.24 655.79 262.9 646.72 260.66C635.76 257.96 626.66 251.3 616.21 247.34C596.92 240.03 576.1 236.54 555.5 238.75C548.34 239.52 539.78 240.13 533.33 243.5C538.21 244.17 543.09 244.83 547.97 245.5C543.9 246.84 539.75 246.72 535.5 247.18C530.17 247.75 524.86 248.84 519.5 249.03C508.76 249.41 497.94 247.73 487.19 247.5C465.67 247.02 443.8 250.58 423.66 258.2C400.71 266.86 380.81 280.75 364.57 299.1C350.95 314.51 341.27 334.36 336.66 354.31C334.07 365.51 333.1 377.02 333.74 388.5C337.68 460.2 396.77 504.61 456.21 533.32C495.98 552.53 556.37 579.49 547.39 633.72C537.99 690.52 456.83 720.84 414.72 679.79C400.97 666.39 393.33 642.74 409.35 627.87C412.57 624.88 416.66 621.78 421.08 621.5C408.37 629.42 401.87 642.81 406.82 657.63C408.07 661.36 409.6 665.25 412.5 667.91C432.53 652.42 461.21 658.09 482.26 668.25C490.55 672.26 498.14 678.23 506.5 681.81C522.13 671.11 535.87 657.41 541.29 638.69C542.63 634.07 545.43 626.44 543.81 621.67C542.97 619.21 532.82 613.02 530.25 611.26C515.95 601.46 500.16 593.29 483.74 587.7C426.07 568.06 353.15 579.17 324.76 639.27C320.27 648.77 317.25 659.03 316.12 669.5C311.18 715.3 343.54 751.15 383.33 768.2C441.45 793.12 512.99 782.89 560.91 741.42C577.03 727.48 589.3 710.16 598.58 691.11C605.92 676.07 609.84 659.14 610.98 642.5C611.96 628.29 610.41 613.88 606.35 600.24C589.82 544.7 542.73 519.19 494.37 495.11C462.55 479.27 427.22 464.66 405.98 434.54C394.22 417.87 387.33 397.04 390.25 376.54C395.89 337.05 437.41 304.27 477.35 310.5C465.38 311.59 449.87 312.7 440.07 320.5C438.73 330.12 449.89 339.48 459.45 338.71C462.51 338.47 465.78 336.24 468.75 335.33C474.43 333.59 480.56 332.69 486.5 332.56C493.32 332.42 499.82 334.27 506.5 334.67C502.97 326.32 496.96 319.02 498.5 309.27C502.3 320.17 507.69 330.41 515.44 339.07C524.99 349.75 536.27 358.05 544.88 369.67C550.37 377.07 554.85 385.21 559.24 393.28C563.14 400.44 566.55 408.24 572.71 413.82C586.51 426.33 607.95 428.95 615.25 408.5C607.38 409 605.79 413.01 595.77 409.66C584.9 406.03 577.39 394.61 572.65 384.81C564.81 368.62 558.78 350.49 557.1 332.5C556.55 326.52 557 320.49 557.03 314.5C552.09 311.83 547.15 309.17 542.21 306.5C547.19 306.1 554.82 310.33 560.5 311.05C566.12 311.76 571.81 312.09 577.47 311.66C581.86 311.32 586.18 310.14 590.51 310.5C584.94 312.2 579.29 314.05 573.48 314.77C569.65 315.25 565.76 315.04 561.95 315.5C559.94 322.25 560.69 330.62 561.67 337.55C564.28 355.92 570.59 375.23 580.56 390.93C585.96 399.43 594.07 406.84 604.58 407.5C603.21 400.34 597.18 394.46 596.5 385.83C610.17 393.06 625.3 397.75 635.93 409.59C648.41 423.5 652.45 440.13 670.64 448.86C674.28 450.61 678.62 452.41 682.66 452.5C673.82 444.55 663.86 439.2 659.15 427.5C662.58 428.19 665.96 429.44 669.5 429.85C675.15 430.5 680.84 429.71 686.5 430.2C690.91 430.58 695.42 432.57 699.71 432.5C689.72 424.17 676.3 425.23 664.82 420.64C649.44 414.48 641.52 400.22 627.95 391.56C616.97 384.55 601.67 382.15 594.16 370.3C591.98 366.86 592.67 360.49 592.6 356.5C592.34 343.39 595.81 329.39 605.53 320.04C607.72 317.93 610.86 314.34 613.85 313.46C618.24 312.18 623.87 313.26 628.47 312.73C636.33 311.82 643.88 309.55 651.5 307.55C654.18 317.51 647.54 335.15 642.85 344.36C641.11 347.78 638.54 351.24 637.5 354.85C648.58 349.24 659.43 330.58 663.65 319.21C665.43 314.4 666.29 309.29 668.03 304.5C671.64 303.5 675.24 302.5 678.84 301.5C678.87 313.75 675.7 325.13 670.75 336.27C668.47 341.4 663.11 347 662.5 352.35ZM620.99 277.5C613.2 279.65 604.63 281.77 597.19 277.34C591.17 273.77 588.34 267.49 581.81 264.5C596.34 260.29 609.51 270.15 620.99 277.5ZM658.5 278.5C662.59 278.42 664.6 279.67 667.47 282.5C664.33 282.5 661.08 280.71 658.5 278.5ZM226.66 318.5C223.18 320.78 218.99 330.46 216.98 334.49C209.35 349.8 203.84 365.83 199.77 382.42C183.86 447.31 205.95 514.25 248.83 563.7C257.63 573.85 267.45 583.15 277.86 591.62C282.28 595.22 287.32 600.37 292.61 602.5C287.99 594.8 281.14 587.96 275.67 580.8C266.62 568.92 258.66 556.04 251.61 542.89C244.12 528.94 237.48 514.16 232.42 499.15C230.68 494 229.82 488.62 228.15 483.47C224.79 473.1 220.89 462.95 218.3 452.34C212.98 430.61 210.89 407.82 212.25 385.5C213.65 362.48 219.75 340.37 226.66 318.5ZM434.5 322.98C425.44 326.01 416.93 334.16 410.95 341.44C407.89 345.17 405.32 349.34 408.67 353.82C413.33 360.05 429.48 365.2 436.23 360.7C438.98 358.87 440.99 354.28 443.16 351.7C446.38 347.87 450.87 345.27 453.94 341.5C449.03 338.8 443.47 337.34 439.62 332.86C437.07 329.9 436.7 326 434.5 322.98ZM873.5 336.98C873.17 341.33 875.66 346.24 877.07 350.47C879.91 359 882.72 367.81 884.75 376.57C893.14 412.8 902.29 449.26 904.77 486.5C907.93 533.95 903.04 580.47 890.73 626.35C880.72 663.69 865.33 700.85 847.71 735.23C842.5 745.39 836.78 755.33 831.61 765.5C834.4 764.5 836.4 761.35 838.45 758.95C843.06 753.54 847.49 747.95 851.69 742.21C867.62 720.41 881.41 697.38 892.08 672.53C937.6 566.5 933.58 436.84 873.5 336.98ZM403.5 354.19C400.92 356.19 399.79 359.15 398.63 362.2C396.15 368.78 392.08 384.87 395.04 391.38C395.93 393.33 398.08 394.69 399.98 395.5C406.76 398.38 426.59 399.98 430.94 392.33C432.41 389.74 430.96 385.37 431.02 382.5C431.16 376.83 433.64 371.24 433.5 365.77C429.75 364.86 425.52 365.75 421.51 364.94C413.7 363.36 409.17 359.27 403.5 354.19ZM252.5 368.26C238 399.03 237.63 445.95 247.46 478.09C252.43 494.33 261.7 509.47 271.01 523.5C279.63 536.5 290.85 550.56 303.5 559.84C301.69 554.74 297.48 549.59 294.62 544.86C289.91 537.08 285.6 529.05 281.57 520.9C274.35 506.27 270.14 491.8 265.21 476.4C262.72 468.6 259.39 461.2 257.42 453.2C252.86 434.76 250.75 416.5 250.89 397.5C250.95 389.1 253.48 375.56 252.5 368.26ZM432.31 397.5C427.18 398.11 422.66 401.49 416.5 401.9C409.49 402.37 403.09 399.38 396.5 399.43C395.38 408.87 402.44 420.46 407.45 428.09C408.98 430.42 410.55 434.04 413.15 435.37C421.63 439.73 442.94 432.67 447.77 424.5C446.4 419.56 441.87 415.69 439.24 411.26C436.66 406.9 435.62 401.3 432.31 397.5ZM858.27 406.5C845.19 405.89 821.4 415.07 809.26 420.75C764.3 441.78 725.07 478.51 704.53 524.04C697.94 538.63 687.37 567.31 689.5 582.96C696.75 571.72 701.97 559.05 709.11 547.65C716.27 536.22 724.61 525.82 732.38 514.85C738.49 506.21 743.2 496.66 749.63 488.15C761.41 472.53 775.03 458.07 790.11 445.58C804.44 433.71 820.21 423.57 836.98 415.49C843.94 412.13 851.34 409.86 858.27 406.5ZM451.5 428.11C445.73 432.2 440.34 435.78 433.43 437.82C428.61 439.25 422.61 438.55 418.59 441.5C423.33 449.94 433.48 455.81 441.24 461.28C443.87 463.13 447.3 466.26 450.58 466.7C456.94 467.54 465 463.76 470.57 461.07C475.29 458.8 481.71 456.55 483.85 451.5C481.88 447.27 477.94 445.69 474.09 443.42C467.69 439.65 457.52 429.89 451.5 428.11ZM287.5 446.01C283.91 465.77 290.9 486.91 305.5 500.71C305.28 496.76 302.47 492.27 301.01 488.49C299.26 483.99 298.46 479.19 296.77 474.7C295.69 471.84 294.19 469.25 293.29 466.29C291.39 460.03 290.91 451.46 287.5 446.01ZM490.5 453.28C485.13 456.56 480.57 460.54 474.69 463.23C469.19 465.76 462.4 466.76 457.66 470.5C461.26 475.59 469.43 477.73 474.93 480.54C479.45 482.85 492.33 490.27 496.55 490.96C500.01 491.53 504.19 489.98 507.46 488.93C516.62 485.99 527.6 482.62 534.4 475.5C532.66 470.86 527.53 469.35 523.19 467.34C512.65 462.48 501.65 456.47 490.5 453.28ZM589.55 505.5C587.07 498.58 576.63 494.38 570.57 490.95C564.55 487.54 548.73 477.55 542.46 477.2C538.84 476.99 535.36 481.06 532.27 482.76C525.4 486.53 510.29 489.77 505.67 494.5C510.35 499.31 528.25 506.75 535.4 511.06C539.11 513.29 544.36 518.02 548.64 518.65C554.94 519.58 563.43 516.62 569.53 515.09C575.99 513.46 585.9 511.68 589.55 505.5ZM835.2 488.5C827.63 488.03 815.18 495.15 808.29 498.77C782.73 512.22 760.62 533.56 745.93 558.4C742.22 564.67 732.35 580.28 732.5 586.92C742.32 574.9 752.61 563.09 763.65 552.17C767.67 548.19 772.06 544.55 775.98 540.48C779.91 536.41 783.13 531.67 787.12 527.61C801.66 512.83 817.82 499.79 835.2 488.5ZM177.5 491.65C173.42 509.25 174.31 535.51 175.56 553.66C179.26 607.49 194.67 659.91 221.84 706.66C230.65 721.81 240.55 736.31 251.51 749.99C254.93 754.25 258.37 759.15 262.5 762.7C262.18 759.23 259.81 755.4 258.43 752.11C254.92 743.73 251.03 735.51 247.3 727.23C234.65 699.1 221.21 671.62 211.21 642.37C202.56 617.08 197.08 590.85 193.26 564.45C191.64 553.21 191.75 541.69 189.98 530.5C188.85 523.33 185.55 516.17 183.28 509.3C181.34 503.42 180.01 497.32 177.5 491.65ZM595.5 509.15C587.85 513.17 580.74 516.63 572.2 518.57C566.95 519.77 559.52 519.66 555.69 523.5C558.78 527.32 563.53 529.99 567.36 533.11C572.46 537.26 577.2 542.02 581.63 546.86C584.59 550.11 589.76 558.68 593.26 560.32C598.87 562.95 607.46 562.45 613.5 562.32C620.08 562.18 630.4 561.99 635.46 556.94C639.76 552.66 633.13 545.57 630.53 541.96C624.4 533.48 617.27 525.99 609.55 518.96C605.47 515.25 600.95 510.49 595.5 509.15ZM810.47 554.5C805.18 554.42 800.15 557.53 795.51 560.01C782.13 567.16 767.19 580.86 761.99 595.5C778.15 581.83 794.31 568.17 810.47 554.5ZM639.5 560.37C631.34 566.77 619.47 567.22 609.5 566.7C605.57 566.49 601.84 565.75 597.97 566.5C599 573.13 605.9 582.92 608.53 589.96C610.68 595.73 612.29 601.73 613.65 607.73C614.23 610.29 614.29 613.66 615.55 615.97C616.79 618.26 620.36 619.83 622.57 620.97C630.88 625.24 643.3 627 652.14 623.59C659.6 620.7 657.96 614.15 657.19 607.5C655.76 595.17 652.33 582.64 647.17 571.34C645.22 567.06 644.14 562.28 639.5 560.37ZM617.5 623.69C615 627.94 616.43 642.48 615.78 648.49C615.16 654.19 614.15 659.88 612.83 665.45C612.09 668.54 610.33 672.29 610.8 675.49C612 683.67 628.55 689.85 635.5 690.18C639.72 690.38 644.67 689.49 647.57 686.07C650.26 682.91 651.06 677.46 652.13 673.55C654.84 663.69 657.03 653.72 657.81 643.5C658.19 638.43 659.41 632.14 657.2 627.5C654.69 627.66 652.56 628.94 649.99 629.5C646.01 630.38 641.54 630.34 637.5 629.91C630.4 629.15 624.26 625.41 617.5 623.69ZM690.07 836.5C686.14 835.34 681.74 836.05 677.5 836.06C671.83 836.07 666.15 835.45 660.74 833.68C641.81 827.48 638.42 809.28 656.73 799.24C667.72 793.23 681.35 793.14 693.5 793.81C710.2 794.72 726.78 796.71 743.5 794.83C791.91 789.39 836.18 744.18 826.32 693.35C824.85 685.78 822.4 678.64 818.54 671.95C792.68 627.16 732.55 630.18 691.34 648.82C683.19 652.51 675.11 656.38 667.37 660.89C665.26 662.11 661.31 663.38 659.8 665.29C657.97 667.6 657.83 672.62 656.98 675.49C654.82 682.73 652.29 689.83 649.34 696.79C640.37 717.97 627.25 739.4 611.81 756.5C619.28 756.07 637 743.94 644.08 739.58C668.66 724.41 691.72 705.11 719.51 696.01C734.01 691.26 758.09 688.55 767.43 704.08C778.6 722.64 758.52 740.55 742.43 745.86C726.66 751.07 709.8 749.35 693.5 750.2C667.81 751.54 639.21 758.9 622.78 780.27C605.07 803.32 611.74 834.01 640.81 842.6C657.3 847.48 674.97 843.97 690.07 836.5ZM309.5 681.26C301.11 689.28 293.78 697.59 288.57 708.08C284.67 715.92 281.79 724.52 280.54 733.18C272.56 788.17 321.15 824.82 368.64 837.73C437.42 856.44 511.9 834.84 567.17 791.63C581.55 780.39 598.42 766.62 608.8 751.5C602.23 749.11 595.63 749.54 589.62 744.93C584.57 741.06 582.41 734.66 578.5 731.79C572.75 736.77 567.66 742.43 561.8 747.33C549.37 757.73 534.92 766.22 520 772.51C460.35 797.66 375.59 791.23 332.09 738.39C323.53 727.98 316.51 715.56 313.12 702.46C311.34 695.59 311.86 687.76 309.5 681.26ZM608.5 682.19C602.85 692.04 599.21 702.77 592.84 712.32C590.77 715.42 583.63 723.46 583.2 726.55C582.09 734.47 591.76 741.77 598.01 744.49C602.34 746.37 609.45 747.86 613.82 745.35C617.19 743.4 620.35 737.25 622.54 734.05C628.2 725.83 633.37 717.36 638 708.52C640.36 703.98 643.33 699.64 643.88 694.5C638.75 693.34 633.85 695.61 626.89 693.56C619.07 691.26 615.1 685.17 608.5 682.19ZM807.5 788.03C800.14 792.08 789.5 802.24 782.29 807.81C765.96 820.41 748.82 832.09 731.03 842.53C660.53 883.88 585.16 902.19 503.53 890.75C462.86 885.06 425.06 868.4 386.07 856.46C378.26 854.07 370.4 851.52 362.73 848.72C358.08 847.02 353.24 844.1 348.32 843.5C353.78 849.2 361.3 853.34 367.91 857.58C384.53 868.25 401.77 877.84 420 885.5C517.54 926.46 618.35 921.3 711.68 872.17C738.75 857.92 763.18 838.84 784.48 816.98C790.74 810.56 804.71 796 807.5 788.03Z" fill="#e6dacc" fill-rule="evenodd" stroke="#e6dacc" stroke-width="0.25" stroke-linejoin="round"/>
<path d="M839.5 327.84C773.47 225.57 668.08 155.18 543.5 156.75C519.22 157.05 494.78 160.47 471.32 166.71C443.54 174.11 416.29 184.41 391.27 198.75C351.82 221.38 316.65 251.13 287.55 286.09C276.63 299.21 267.18 313.35 257.5 327.38C257.6 319.9 267.77 303.36 271.73 296.25C289.1 265.11 312 237.75 338.82 214.34C450.68 116.69 625.03 111.17 742.68 201.88C774.42 226.36 800.74 255.62 821.62 289.87C826.78 298.32 831.21 307.19 835.37 316.17C837.04 319.77 839.66 323.99 839.5 327.84ZM662.5 352.35C663.11 347 668.47 341.4 670.75 336.27C675.7 325.13 678.87 313.75 678.84 301.5C675.24 302.5 671.64 303.5 668.03 304.5C666.29 309.29 665.43 314.4 663.65 319.21C659.43 330.58 648.58 349.24 637.5 354.85C638.54 351.24 641.11 347.78 642.85 344.36C647.54 335.15 654.18 317.51 651.5 307.55C643.88 309.55 636.33 311.82 628.47 312.73C623.87 313.26 618.24 312.18 613.85 313.46C610.86 314.34 607.72 317.93 605.53 320.04C595.81 329.39 592.34 343.39 592.6 356.5C592.67 360.49 591.98 366.86 594.16 370.3C601.67 382.15 616.97 384.55 627.95 391.56C641.52 400.22 649.44 414.48 664.82 420.64C676.3 425.23 689.72 424.17 699.71 432.5C695.42 432.57 690.91 430.58 686.5 430.2C680.84 429.71 675.15 430.5 669.5 429.85C665.96 429.44 662.58 428.19 659.15 427.5C663.86 439.2 673.82 444.55 682.66 452.5C678.62 452.41 674.28 450.61 670.64 448.86C652.45 440.13 648.41 423.5 635.93 409.59C625.3 397.75 610.17 393.06 596.5 385.83C597.18 394.46 603.21 400.34 604.58 407.5C594.07 406.84 585.96 399.43 580.56 390.93C570.59 375.23 564.28 355.92 561.67 337.55C560.69 330.62 559.94 322.25 561.95 315.5C565.76 315.04 569.65 315.25 573.48 314.77C579.29 314.05 584.94 312.2 590.51 310.5C586.18 310.14 581.86 311.32 577.47 311.66C571.81 312.09 566.12 311.76 560.5 311.05C554.82 310.33 547.19 306.1 542.21 306.5C547.15 309.17 552.09 311.83 557.03 314.5C557 320.49 556.55 326.52 557.1 332.5C558.78 350.49 564.81 368.62 572.65 384.81C577.39 394.61 584.9 406.03 595.77 409.66C605.79 413.01 607.38 409 615.25 408.5C607.95 428.95 586.51 426.33 572.71 413.82C566.55 408.24 563.14 400.44 559.24 393.28C554.85 385.21 550.37 377.07 544.88 369.67C536.27 358.05 524.99 349.75 515.44 339.07C507.69 330.41 502.3 320.17 498.5 309.27C496.96 319.02 502.97 326.32 506.5 334.67C499.82 334.27 493.32 332.42 486.5 332.56C480.56 332.69 474.43 333.59 468.75 335.33C465.78 336.24 462.51 338.47 459.45 338.71C449.89 339.48 438.73 330.12 440.07 320.5C449.87 312.7 465.38 311.59 477.35 310.5C437.41 304.27 395.89 337.05 390.25 376.54C387.33 397.04 394.22 417.87 405.98 434.54C427.22 464.66 462.55 479.27 494.37 495.11C542.73 519.19 589.82 544.7 606.35 600.24C610.41 613.88 611.96 628.29 610.98 642.5C609.84 659.14 605.92 676.07 598.58 691.11C589.3 710.16 577.03 727.48 560.91 741.42C512.99 782.89 441.45 793.12 383.33 768.2C343.54 751.15 311.18 715.3 316.12 669.5C317.25 659.03 320.27 648.77 324.76 639.27C353.15 579.17 426.07 568.06 483.74 587.7C500.16 593.29 515.95 601.46 530.25 611.26C532.82 613.02 542.97 619.21 543.81 621.67C545.43 626.44 542.63 634.07 541.29 638.69C535.87 657.41 522.13 671.11 506.5 681.81C498.14 678.23 490.55 672.26 482.26 668.25C461.21 658.09 432.53 652.42 412.5 667.91C409.6 665.25 408.07 661.36 406.82 657.63C401.87 642.81 408.37 629.42 421.08 621.5C416.66 621.78 412.57 624.88 409.35 627.87C393.33 642.74 400.97 666.39 414.72 679.79C456.83 720.84 537.99 690.52 547.39 633.72C556.37 579.49 495.98 552.53 456.21 533.32C396.77 504.61 337.68 460.2 333.74 388.5C333.1 377.02 334.07 365.51 336.66 354.31C341.27 334.36 350.95 314.51 364.57 299.1C380.81 280.75 400.71 266.86 423.66 258.2C443.8 250.58 465.67 247.02 487.19 247.5C497.94 247.73 508.76 249.41 519.5 249.03C524.86 248.84 530.17 247.75 535.5 247.18C539.75 246.72 543.9 246.84 547.97 245.5C543.09 244.83 538.21 244.17 533.33 243.5C539.78 240.13 548.34 239.52 555.5 238.75C576.1 236.54 596.92 240.03 616.21 247.34C626.66 251.3 635.76 257.96 646.72 260.66C655.79 262.9 667.34 262.24 675.63 265.81C681.02 268.12 684.88 272.55 689.21 276.31C692.3 279 696.4 281.61 698.06 285.49C700.2 290.49 698.63 296.72 695.37 300.85C694.35 302.14 692.91 303.16 692.31 304.72C691.08 307.94 690.59 311.56 689.39 314.84C684.09 329.29 674.61 342.8 662.5 352.35ZM620.99 277.5C609.51 270.15 596.34 260.29 581.81 264.5C588.34 267.49 591.17 273.77 597.19 277.34C604.63 281.77 613.2 279.65 620.99 277.5ZM658.5 278.5C661.08 280.71 664.33 282.5 667.47 282.5C664.6 279.67 662.59 278.42 658.5 278.5ZM226.66 318.5C219.75 340.37 213.65 362.48 212.25 385.5C210.89 407.82 212.98 430.61 218.3 452.34C220.89 462.95 224.79 473.1 228.15 483.47C229.82 488.62 230.68 494 232.42 499.15C237.48 514.16 244.12 528.94 251.61 542.89C258.66 556.04 266.62 568.92 275.67 580.8C281.14 587.96 287.99 594.8 292.61 602.5C287.32 600.37 282.28 595.22 277.86 591.62C267.45 583.15 257.63 573.85 248.83 563.7C205.95 514.25 183.86 447.31 199.77 382.42C203.84 365.83 209.35 349.8 216.98 334.49C218.99 330.46 223.18 320.78 226.66 318.5ZM434.5 322.98C436.7 326 437.07 329.9 439.62 332.86C443.47 337.34 449.03 338.8 453.94 341.5C450.87 345.27 446.38 347.87 443.16 351.7C440.99 354.28 438.98 358.87 436.23 360.7C429.48 365.2 413.33 360.05 408.67 353.82C405.32 349.34 407.89 345.17 410.95 341.44C416.93 334.16 425.44 326.01 434.5 322.98ZM873.5 336.98C933.58 436.84 937.6 566.5 892.08 672.53C881.41 697.38 867.62 720.41 851.69 742.21C847.49 747.95 843.06 753.54 838.45 758.95C836.4 761.35 834.4 764.5 831.61 765.5C836.78 755.33 842.5 745.39 847.71 735.23C865.33 700.85 880.72 663.69 890.73 626.35C903.04 580.47 907.93 533.95 904.77 486.5C902.29 449.26 893.14 412.8 884.75 376.57C882.72 367.81 879.91 359 877.07 350.47C875.66 346.24 873.17 341.33 873.5 336.98ZM403.5 354.19C409.17 359.27 413.7 363.36 421.51 364.94C425.52 365.75 429.75 364.86 433.5 365.77C433.64 371.24 431.16 376.83 431.02 382.5C430.96 385.37 432.41 389.74 430.94 392.33C426.59 399.98 406.76 398.38 399.98 395.5C398.08 394.69 395.93 393.33 395.04 391.38C392.08 384.87 396.15 368.78 398.63 362.2C399.79 359.15 400.92 356.19 403.5 354.19ZM252.5 368.26C253.48 375.56 250.95 389.1 250.89 397.5C250.75 416.5 252.86 434.76 257.42 453.2C259.39 461.2 262.72 468.6 265.21 476.4C270.14 491.8 274.35 506.27 281.57 520.9C285.6 529.05 289.91 537.08 294.62 544.86C297.48 549.59 301.69 554.74 303.5 559.84C290.85 550.56 279.63 536.5 271.01 523.5C261.7 509.47 252.43 494.33 247.46 478.09C237.63 445.95 238 399.03 252.5 368.26ZM432.31 397.5C435.62 401.3 436.66 406.9 439.24 411.26C441.87 415.69 446.4 419.56 447.77 424.5C442.94 432.67 421.63 439.73 413.15 435.37C410.55 434.04 408.98 430.42 407.45 428.09C402.44 420.46 395.38 408.87 396.5 399.43C403.09 399.38 409.49 402.37 416.5 401.9C422.66 401.49 427.18 398.11 432.31 397.5ZM858.27 406.5C851.34 409.86 843.94 412.13 836.98 415.49C820.21 423.57 804.44 433.71 790.11 445.58C775.03 458.07 761.41 472.53 749.63 488.15C743.2 496.66 738.49 506.21 732.38 514.85C724.61 525.82 716.27 536.22 709.11 547.65C701.97 559.05 696.75 571.72 689.5 582.96C687.37 567.31 697.94 538.63 704.53 524.04C725.07 478.51 764.3 441.78 809.26 420.75C821.4 415.07 845.19 405.89 858.27 406.5ZM451.5 428.11C457.52 429.89 467.69 439.65 474.09 443.42C477.94 445.69 481.88 447.27 483.85 451.5C481.71 456.55 475.29 458.8 470.57 461.07C465 463.76 456.94 467.54 450.58 466.7C447.3 466.26 443.87 463.13 441.24 461.28C433.48 455.81 423.33 449.94 418.59 441.5C422.61 438.55 428.61 439.25 433.43 437.82C440.34 435.78 445.73 432.2 451.5 428.11ZM287.5 446.01C290.91 451.46 291.39 460.03 293.29 466.29C294.19 469.25 295.69 471.84 296.77 474.7C298.46 479.19 299.26 483.99 301.01 488.49C302.47 492.27 305.28 496.76 305.5 500.71C290.9 486.91 283.91 465.77 287.5 446.01ZM490.5 453.28C501.65 456.47 512.65 462.48 523.19 467.34C527.53 469.35 532.66 470.86 534.4 475.5C527.6 482.62 516.62 485.99 507.46 488.93C504.19 489.98 500.01 491.53 496.55 490.96C492.33 490.27 479.45 482.85 474.93 480.54C469.43 477.73 461.26 475.59 457.66 470.5C462.4 466.76 469.19 465.76 474.69 463.23C480.57 460.54 485.13 456.56 490.5 453.28ZM589.55 505.5C585.9 511.68 575.99 513.46 569.53 515.09C563.43 516.62 554.94 519.58 548.64 518.65C544.36 518.02 539.11 513.29 535.4 511.06C528.25 506.75 510.35 499.31 505.67 494.5C510.29 489.77 525.4 486.53 532.27 482.76C535.36 481.06 538.84 476.99 542.46 477.2C548.73 477.55 564.55 487.54 570.57 490.95C576.63 494.38 587.07 498.58 589.55 505.5ZM835.2 488.5C817.82 499.79 801.66 512.83 787.12 527.61C783.13 531.67 779.91 536.41 775.98 540.48C772.06 544.55 767.67 548.19 763.65 552.17C752.61 563.09 742.32 574.9 732.5 586.92C732.35 580.28 742.22 564.67 745.93 558.4C760.62 533.56 782.73 512.22 808.29 498.77C815.18 495.15 827.63 488.03 835.2 488.5ZM177.5 491.65C180.01 497.32 181.34 503.42 183.28 509.3C185.55 516.17 188.85 523.33 189.98 530.5C191.75 541.69 191.64 553.21 193.26 564.45C197.08 590.85 202.56 617.08 211.21 642.37C221.21 671.62 234.65 699.1 247.3 727.23C251.03 735.51 254.92 743.73 258.43 752.11C259.81 755.4 262.18 759.23 262.5 762.7C258.37 759.15 254.93 754.25 251.51 749.99C240.55 736.31 230.65 721.81 221.84 706.66C194.67 659.91 179.26 607.49 175.56 553.66C174.31 535.51 173.42 509.25 177.5 491.65ZM595.5 509.15C600.95 510.49 605.47 515.25 609.55 518.96C617.27 525.99 624.4 533.48 630.53 541.96C633.13 545.57 639.76 552.66 635.46 556.94C630.4 561.99 620.08 562.18 613.5 562.32C607.46 562.45 598.87 562.95 593.26 560.32C589.76 558.68 584.59 550.11 581.63 546.86C577.2 542.02 572.46 537.26 567.36 533.11C563.53 529.99 558.78 527.32 555.69 523.5C559.52 519.66 566.95 519.77 572.2 518.57C580.74 516.63 587.85 513.17 595.5 509.15ZM810.47 554.5C794.31 568.17 778.15 581.83 761.99 595.5C767.19 580.86 782.13 567.16 795.51 560.01C800.15 557.53 805.18 554.42 810.47 554.5ZM639.5 560.37C644.14 562.28 645.22 567.06 647.17 571.34C652.33 582.64 655.76 595.17 657.19 607.5C657.96 614.15 659.6 620.7 652.14 623.59C643.3 627 630.88 625.24 622.57 620.97C620.36 619.83 616.79 618.26 615.55 615.97C614.29 613.66 614.23 610.29 613.65 607.73C612.29 601.73 610.68 595.73 608.53 589.96C605.9 582.92 599 573.13 597.97 566.5C601.84 565.75 605.57 566.49 609.5 566.7C619.47 567.22 631.34 566.77 639.5 560.37ZM617.5 623.69C624.26 625.41 630.4 629.15 637.5 629.91C641.54 630.34 646.01 630.38 649.99 629.5C652.56 628.94 654.69 627.66 657.2 627.5C659.41 632.14 658.19 638.43 657.81 643.5C657.03 653.72 654.84 663.69 652.13 673.55C651.06 677.46 650.26 682.91 647.57 686.07C644.67 689.49 639.72 690.38 635.5 690.18C628.55 689.85 612 683.67 610.8 675.49C610.33 672.29 612.09 668.54 612.83 665.45C614.15 659.88 615.16 654.19 615.78 648.49C616.43 642.48 615 627.94 617.5 623.69ZM690.07 836.5C674.97 843.97 657.3 847.48 640.81 842.6C611.74 834.01 605.07 803.32 622.78 780.27C639.21 758.9 667.81 751.54 693.5 750.2C709.8 749.35 726.66 751.07 742.43 745.86C758.52 740.55 778.6 722.64 767.43 704.08C758.09 688.55 734.01 691.26 719.51 696.01C691.72 705.11 668.66 724.41 644.08 739.58C637 743.94 619.28 756.07 611.81 756.5C627.25 739.4 640.37 717.97 649.34 696.79C652.29 689.83 654.82 682.73 656.98 675.49C657.83 672.62 657.97 667.6 659.8 665.29C661.31 663.38 665.26 662.11 667.37 660.89C675.11 656.38 683.19 652.51 691.34 648.82C732.55 630.18 792.68 627.16 818.54 671.95C822.4 678.64 824.85 685.78 826.32 693.35C836.18 744.18 791.91 789.39 743.5 794.83C726.78 796.71 710.2 794.72 693.5 793.81C681.35 793.14 667.72 793.23 656.73 799.24C638.42 809.28 641.81 827.48 660.74 833.68C666.15 835.45 671.83 836.07 677.5 836.06C681.74 836.05 686.14 835.34 690.07 836.5ZM309.5 681.26C311.86 687.76 311.34 695.59 313.12 702.46C316.51 715.56 323.53 727.98 332.09 738.39C375.59 791.23 460.35 797.66 520 772.51C534.92 766.22 549.37 757.73 561.8 747.33C567.66 742.43 572.75 736.77 578.5 731.79C582.41 734.66 584.57 741.06 589.62 744.93C595.63 749.54 602.23 749.11 608.8 751.5C598.42 766.62 581.55 780.39 567.17 791.63C511.9 834.84 437.42 856.44 368.64 837.73C321.15 824.82 272.56 788.17 280.54 733.18C281.79 724.52 284.67 715.92 288.57 708.08C293.78 697.59 301.11 689.28 309.5 681.26ZM608.5 682.19C615.1 685.17 619.07 691.26 626.89 693.56C633.85 695.61 638.75 693.34 643.88 694.5C643.33 699.64 640.36 703.98 638 708.52C633.37 717.36 628.2 725.83 622.54 734.05C620.35 737.25 617.19 743.4 613.82 745.35C609.45 747.86 602.34 746.37 598.01 744.49C591.76 741.77 582.09 734.47 583.2 726.55C583.63 723.46 590.77 715.42 592.84 712.32C599.21 702.77 602.85 692.04 608.5 682.19ZM807.5 788.03C804.71 796 790.74 810.56 784.48 816.98C763.18 838.84 738.75 857.92 711.68 872.17C618.35 921.3 517.54 926.46 420 885.5C401.77 877.84 384.53 868.25 367.91 857.58C361.3 853.34 353.78 849.2 348.32 843.5C353.24 844.1 358.08 847.02 362.73 848.72C370.4 851.52 378.26 854.07 386.07 856.46C425.06 868.4 462.86 885.06 503.53 890.75C585.16 902.19 660.53 883.88 731.03 842.53C748.82 832.09 765.96 820.41 782.29 807.81C789.5 802.24 800.14 792.08 807.5 788.03Z" fill="#484d4f" fill-rule="evenodd" stroke="#484d4f" stroke-width="0.25" stroke-linejoin="round"/>
</svg>