<?xml version="1.0" encoding="UTF-8"?>
<svg xmlns="http://www.w3.org/2000/svg" viewBox="0 0 1095 1095" width="1095" height="1095">
<path d="M661.5 103.28C669.64 103.67 682.13 112.73 688.84 117.63C719.16 139.78 733.31 167.77 733.4 205.5C739.42 213 744.42 221.46 742.5 231.87C741.5 230.47 740.5 229.07 739.5 227.66C739.3 230.48 740.41 232.63 740.88 235.51C741.73 240.82 742 246.22 742.69 251.55C744.23 263.59 745.89 275.54 747.96 287.5C748.65 291.49 748.82 295.72 750.19 299.5C750.96 298.03 751.73 296.57 752.5 295.1C757.14 307.61 759.11 320.95 752.5 333.09C751.83 330.74 751.17 328.39 750.5 326.04C748.31 332.08 747.87 339 745.7 345.25C744.91 347.51 744.06 351.23 742.51 353.06C741.47 354.29 740.14 354.29 739.26 355.71C736.44 360.32 735.22 367.14 733.71 372.31C730.94 381.74 727.64 391.01 724.86 400.45C721.57 411.58 723.06 425.59 713.11 433.5C713.11 430.6 713.11 427.7 713.11 424.8C709.06 428.72 707.56 436.8 705.74 442.32C701.05 456.55 696.55 470.7 693.98 485.5C693.12 490.46 691.65 495.49 691.21 500.5C691.05 502.4 690.3 505.41 692.7 505.5C692.64 509.6 692.37 513.79 691.4 517.79C691.12 518.93 689.13 522.41 689.41 523.39C689.7 524.4 692.19 525.09 693.04 525.5C686.94 529.97 678.97 531.72 671.5 531.86C668.17 528.75 664.83 525.63 661.5 522.51C661.42 523.04 661.24 525.84 660.97 526.21C660.23 527.26 654.59 526.15 653.67 525.66C653.23 525.42 653.14 524.8 652.75 524.5C656.2 522.63 658.58 520 662.5 520.33C664.85 511.76 662.29 507.61 660.96 499.5C660.45 496.4 660.68 493.27 660.5 490.16C654.7 502.05 664.9 517.66 650.07 522.52C647.95 523.21 645.71 523.67 643.5 523.86C639.41 524.2 638.23 523.61 635.5 521.14C627.08 526.38 618.08 530.19 610.27 536.5C613.64 536.25 617.05 534.62 620.5 534.07C628.91 532.75 637.22 533.39 645.17 536.5C639.7 540.75 633.26 543.87 627.74 548.23C622.07 552.71 617.57 558.33 612.6 563.5C616.49 563.22 620.31 559.44 623.64 557.08C632.12 551.06 647.01 540.11 657.75 542.5C656.61 543.31 655.48 544.12 654.35 544.93C662.71 544.93 671.08 544.93 679.45 544.93C678.13 549.78 676.8 554.64 675.48 559.5C675.99 559.4 678.04 558.33 678.33 558.5C679.35 559.09 679.21 562.28 679.38 563.32C680.03 567.38 680.98 571.25 682.5 575.07C683.12 570.96 681.5 552.74 688.77 554.5C689.18 549.17 689.44 544.24 693.5 540.32C694.73 539.84 696.08 540.07 697.1 539.61C698.25 539.09 699.21 537.48 700.21 536.69C702.46 534.91 705.15 533.76 707.36 531.92C710.78 529.06 713.62 525.38 716.5 522C719.9 531.27 716.87 530.58 724.5 538.96C724.93 534.26 722.32 528.62 722.06 523.5C721.47 512.21 726.21 495.27 732.09 485.62C735.63 479.81 740.34 475.13 747.54 476.5C750.67 467.61 750.17 457.73 748.75 448.54C747.98 443.57 745.17 437 746.5 432.32C764.37 445.68 776.18 469.21 775.71 491.5C775.61 496.24 775.03 500.86 773.89 505.47C772.87 509.61 771 513.37 771.5 517.47C773.5 515.55 775.5 513.63 777.5 511.72C775.83 524.2 774.17 536.68 772.5 549.16C773.21 548.27 773.92 547.39 774.63 546.5C778.16 560.47 766.63 571.87 757.91 580.97C757.91 578.44 757.91 575.91 757.91 573.38C750.02 580.3 742.67 587.27 735.87 595.35C730.74 601.44 726.62 608.66 720.76 614.02C722.47 614.02 724.18 614.02 725.89 614.02C723.51 619.64 718.74 624.8 713.67 628.16C712.46 628.97 709.97 630.95 708.45 630.84C707 630.74 706.84 629.76 705.5 629.63C695.82 634.35 685.13 637.13 676.31 643.5C681.64 642.83 686.98 642.17 692.31 641.5C684.27 650.4 673.73 657.62 665.58 667.1C660.14 673.41 654.92 679.99 650.63 687.15C647.43 692.49 644.91 698.28 641.54 703.5C636.66 703.46 631.29 710.36 627.57 713.47C629.45 713.47 631.33 713.47 633.21 713.47C631.49 718.86 628.3 724.85 628.5 730.45C634.46 721.45 646.28 706.55 655.5 701.16C655.68 706.01 653.34 711.75 652.18 716.55C649.59 727.26 646.72 737.77 643.77 748.38C642.42 753.27 639.49 758.88 639.5 763.85C645.17 758.8 650.83 753.76 656.5 748.71C657.34 754.52 652.37 765.66 650.28 771.7C644.09 789.62 635.01 808.36 633.5 827.43C638.17 822.58 642.83 817.73 647.5 812.87C648.71 819.38 646.34 827.91 645.14 834.52C642.91 846.74 640.57 859.65 641.5 872.09C642.5 870.16 643.5 868.22 644.5 866.29C648.49 878.87 650.14 893.19 650.5 906.31C642.11 900.86 637.73 899.69 628.5 896.35C627.54 893.73 626.58 891.12 625.61 888.5C622.31 894.61 616.91 895.19 610.63 896.31C608.14 896.76 605.07 898.02 602.54 897.86C601.47 897.79 600.76 897.06 599.68 897.22C598.43 897.4 590.34 903 589.65 904.09C589.11 904.94 589.74 905.49 588.89 906.39C587.68 907.65 572.5 917.34 570.61 918.14C567.98 919.26 567.72 918.07 564.33 920.5C563.16 923.42 565.03 920.72 564.72 923.25C564.55 924.64 561.75 927.15 560.89 928.34C556.35 934.67 556.48 936.88 549.39 940.91C546.52 942.55 543.78 946.27 541.5 943.06C536.5 948.99 531.5 954.92 526.5 960.85C517.15 930.73 530.9 913.04 543.18 887.5C542.72 887.23 541.74 887.12 541.52 886.54C541.09 885.41 544.82 878.35 545.54 877.03C549.16 870.47 553.9 864.79 558.34 858.8C560.93 855.29 562.85 851.37 566.1 848.57C566.1 853.89 566.1 859.22 566.1 864.55C571.43 857.38 573.74 847.11 576.1 838.54C581.68 818.34 587.33 790.55 583.5 769.84C580.59 789.75 576.93 809.19 567.87 827.38C565.18 832.78 562.29 838.36 558.75 843.26C555.98 847.1 552.17 851.19 550.2 855.11C550.2 847.42 550.2 839.73 550.2 832.04C548.1 834.89 547.43 839.14 546.15 842.56C544.29 847.51 541.81 852.27 539.53 857.04C533.52 869.6 525.44 880.61 518.5 892.55C522.5 890.44 526.5 888.32 530.5 886.2C529.14 891.35 525.33 896.6 523.04 901.54C518.45 911.45 515.2 922.64 514.06 933.5C513.32 940.56 514.21 947.58 516.23 954.37C517.53 958.74 520.01 962.92 519.5 967.32C506.94 957.16 495.28 945.41 485.59 932.5C485.11 933.24 485.19 936.05 484.48 936.46C483.91 936.79 480.73 934.71 480.1 934.42C476.01 932.57 471.27 931.77 467.51 929.5C466.14 922.22 467.76 915.58 470.37 908.8C471.34 906.28 472.42 904.28 472.5 901.67C464.68 910.09 461.45 916.67 458.04 927.5C455.51 929.27 452.41 929.85 449.56 931.09C444.17 933.45 436.48 937.79 433.5 942.88C443.72 939.39 452.36 935.9 463.5 937.07C479.51 938.74 488.88 948.37 500.29 958.19C506.07 963.16 513.01 968.14 517.27 974.5C516.01 976.31 514.76 978.12 513.5 979.93C505.33 978.9 499.7 978.8 491.5 978.96C488.34 979.02 485.84 978.58 482.8 979.5C488.93 983.57 473.47 987.66 470.56 988.26C458.71 990.7 447.39 988.9 435.5 988.25C431.71 988.04 427.92 988.54 424.15 988.5C429.24 983.83 434.32 979.17 439.41 974.5C434.74 974.02 429.95 977.13 425.49 978.98C417.03 982.5 408.32 985.59 399.41 987.76C381.81 992.05 364.38 990.66 346.5 989.94C339.85 989.67 332.77 990.61 326.25 989.5C330.24 984.2 337.42 980.08 342.97 976.46C357.89 966.74 373.26 959.9 390.8 956.43C395.15 955.57 399.57 955.3 403.91 954.5C396.2 952.61 388.67 953.22 380.9 952.5C385.39 943.59 396.91 932.89 405.78 928.3C407.25 927.54 408.96 927.72 410.32 927.01C412.15 926.07 413.82 922.95 415.4 921.5C414.54 921.32 412.68 921.26 412.22 920.41C411.87 919.76 415.86 913.9 416.48 912.97C421.49 905.49 428.03 899.45 433.67 892.5C430.49 893.17 427.31 893.83 424.12 894.5C428.23 887.5 433.31 881.06 437.67 874.2C438.19 873.39 441.74 867.93 442.56 868.28C443.27 868.59 443.58 871.08 443.84 871.5C446.68 867.65 447.31 866.74 451.59 864.5C445.85 862.75 449.44 859.77 451.69 856.22C455.6 850.04 460.46 844.37 464.83 838.5C458.01 839.19 452.7 846.78 447.41 850.5C447.94 841.12 458.02 831.16 458.5 823.59C453.5 825.19 448.5 826.78 443.5 828.38C444.7 823.08 448.91 817.97 451.89 813.36C458.2 803.59 464.74 794.02 470.36 783.82C472.63 779.69 477.38 774.27 477.5 769.81C473.5 772.81 468.06 776.94 463.08 777.5C464.65 773.39 467.22 769.68 469.35 765.81C473.27 758.69 476.55 751.3 479.19 743.62C480.25 740.54 481.57 737.46 481.5 734.23C479.83 736.3 478.17 738.37 476.5 740.43C479.83 728 483.17 715.56 486.5 703.12C488.17 704.55 489.83 705.98 491.5 707.42C491.48 703.74 488.95 701.18 487.78 697.63C486.78 694.64 486.98 691.37 486.5 688.28C484 697.3 479.22 703.71 472.5 710.04C471.75 705.77 473.21 700.71 473.52 696.16C473.83 691.56 473.53 687.05 472.88 682.5C471.65 673.85 468.4 665.81 466.02 657.47C463.98 650.35 463.38 643.37 462.5 636.08C459.21 640.32 458.69 646.21 457.5 651.3C452.81 644.63 453.29 630.43 454.3 622.54C457.35 598.55 470.13 578 479.77 556.29C481.89 551.51 483.61 546.56 485.12 541.55C485.66 539.75 485.71 537.54 486.47 535.85C487.66 533.24 494.09 528.67 496.56 527.01C496.56 529.35 496.56 531.69 496.56 534.02C499.2 529.22 502.49 524.75 506.74 521.24C509.78 518.73 514.38 516.53 516.5 513.29C507.17 517.15 497.83 521.01 488.5 524.87C489.17 517.21 489.83 509.54 490.5 501.88C489.17 503.71 487.83 505.54 486.5 507.37C484.49 497.41 489.72 488.11 493.63 479.5C488.22 479.44 487.33 475.38 484.67 471.8C480.45 466.12 474.96 461.91 471.54 455.56C473.42 455.56 475.31 455.56 477.19 455.56C473.06 452.41 472.54 453.25 472.5 448.05C467.14 452.56 460.28 454.53 453.5 452.22C452.5 449.85 451.5 447.47 450.5 445.1C450.29 449.59 450.64 453.93 449.8 458.45C447.23 472.34 436.86 482.27 423.5 485.48C424.14 488.85 421.65 492.94 420.57 496.11C418.89 501.09 417.83 506.31 417.23 511.53C415.54 526.1 420.02 535.31 423.5 548.63C417.73 547.28 412.47 539.14 409.15 534.33C397.22 517.06 393.15 497.42 396.37 476.69C396.99 472.71 398.08 468.71 399.47 464.93C400.68 461.63 403.34 458.34 403.5 455.03C401.5 457.06 399.5 459.1 397.5 461.13C395.29 450.84 407.23 436.43 411.37 426.81C412.25 424.76 413.4 423.21 413.5 421.15C408.01 425.25 414.63 412.67 415.63 411.14C420.17 404.18 426.6 401.98 434.63 401.5C433.25 404.03 431.88 406.55 430.5 409.08C441.94 402.21 455.05 399.02 467.16 393.5C466.59 393.15 465.51 393.16 465.29 392.34C465 391.32 467.14 390.64 467.78 390.33C470.9 388.84 475.02 386.35 478.54 386.18C484.43 385.89 492.11 392.53 494.79 397.3C492.41 397.3 490.03 397.3 487.66 397.3C498.35 404.66 507.12 414.17 517.08 422.42C521.56 426.13 526.45 431.12 526.85 437.51C527 439.85 525.96 440.71 525.29 442.71C524.64 444.64 524.8 446.75 524.35 448.73C523.64 451.82 522.11 454.6 520.9 457.5C526.32 455.3 529.15 445.93 532.93 441.41C535.06 438.87 537.08 435.93 539.5 439.27C543.5 434.52 547.5 429.78 551.5 425.03C545.94 428.21 540.82 430.81 534.5 432.3C532.84 426.19 531.09 417.23 534.8 411.5C533.19 407.04 530.76 402.87 529.19 398.36C525.15 386.76 523.76 374.73 524.36 362.5C525.29 361.62 526.94 361.27 527.64 360.27C529.11 358.17 527.72 357.6 530.35 355.5C527.69 355.19 524.15 355.92 521.58 354.98C520 354.4 518.65 352.27 517.28 351.21C512.75 347.75 508.3 344.3 504.33 340.18C503.61 339.43 499.63 335.77 500.29 334.65C500.9 333.6 503.82 333.7 504.95 333.5C502.29 331.17 499.64 328.83 496.98 326.5C496.98 324.55 496.98 322.6 496.98 320.65C483.29 341.17 437.67 341.11 437.5 309.98C424.65 308.55 411.02 314.65 401.09 322.55C397.76 325.2 394.88 328.52 391.5 331C391.32 322.35 396.66 312.9 401.46 305.95C412.49 289.96 429.07 278.26 448.28 274.61C456.09 273.13 465.19 272.52 472.5 276.07C477.23 273.3 481.96 270.54 486.69 267.77C482.42 267.77 478.15 267.77 473.88 267.77C480.26 264.19 486.8 259.95 494.5 259.13C505.81 257.91 516.5 265.27 523.62 272.98C521.21 272.98 518.8 272.98 516.38 272.98C518.54 276.21 523.01 278.74 526.04 281.46C534.86 289.35 543.83 295.95 554.77 300.7C556.26 301.34 557.43 301.24 558.89 301.62C561.57 302.32 563.62 304.37 566.13 305.38C567.42 305.9 568.83 305.9 570.09 306.46C575.78 308.99 577.16 317.94 576.5 323.18C575.17 322.02 573.83 320.85 572.5 319.69C572.52 323.6 575.11 327.45 575.8 331.55C577.69 342.75 578.36 354.19 580.27 365.44C581.53 372.81 585.17 382.22 585.04 389.5C584.86 400.04 571.03 419.1 563.7 426.5C567.75 426.6 571.66 423.1 575.04 420.54C581.19 415.88 589.43 408.9 597.4 409.5C596.75 411.17 596.09 412.83 595.44 414.5C599.5 412.43 602.5 408.36 606.42 405.94C613.76 401.42 621.71 397.84 629.36 393.86C633.31 391.81 638.9 387.67 643.5 387.72C651.73 387.8 661.36 399.81 668.41 400.5C662.57 394.5 656.73 388.5 650.89 382.5C652.34 378.22 655 374.46 656.76 370.28C661.61 358.74 666.52 347.07 670.71 335.27C673.14 328.45 677.14 313.49 681.73 308.5C682.32 310.3 682.91 312.1 683.5 313.89C685.94 312.05 687.49 311.79 690.5 311.94C690.98 315.78 688.47 318.55 688.5 322C691.04 319.23 694.42 315.5 698.51 315.37C700.18 315.32 701.8 316.09 703.5 316.12C707.86 316.19 712.56 315.76 716.9 315.5C711.65 313.27 697.18 308.87 694.65 303.82C693.75 302.01 694.1 300.4 694.25 298.5C695.34 298.9 696.42 299.3 697.5 299.7C696.33 297.18 694.31 294.98 693.31 292.25C692.86 291.02 692.82 288.73 691.92 287.74C691.17 286.93 690.02 287.01 689.21 286.27C687.01 284.24 685.95 277.27 687.26 274.73C687.63 274.01 688.41 273.92 689.01 273.5C680.04 253.18 671.81 228.28 678.61 206.2C680.95 198.6 685.1 188.82 692.5 185.04C693.61 186.14 694.65 187.68 695.94 188.55C701.36 192.17 704.82 190.41 705.27 198.5C706.09 198.07 707.17 197.08 708.31 197.24C709.86 197.45 711.6 199.83 712.64 200.87C716.5 204.77 719.97 208.82 723.5 213.02C723.59 206.57 715.2 198.69 713.11 192.31C711.54 187.5 712.15 183.7 708.99 179.22C708.99 181.36 708.99 183.49 708.99 185.63C704.19 183.57 700.87 182.63 695.5 182.92C694.68 178.88 694.63 174.62 694 170.5C692.19 158.73 688.66 146.92 683.24 136.28C679.39 128.74 674.98 121.38 669.99 114.53C667.38 110.93 663.05 107.37 661.5 103.28ZM559.99 162.5C565.54 164.14 568.72 169.65 574.5 170.65C573 168.6 571.5 166.55 570 164.5C574.38 163.68 579.26 165.44 583.64 166.77C598.26 171.23 605.86 176.57 613.99 189.5C610.97 188.83 607.94 188.17 604.92 187.5C616.88 199.03 624.63 220.1 632.78 234.7C634.43 237.66 639.46 249.16 641.98 250.42C642.5 250.68 643.89 250.47 644.5 250.5C646.14 254.17 647.78 257.83 649.42 261.5C649.57 261.07 649.87 258.81 650.5 258.58C650.93 258.43 652.31 260.63 652.54 260.92C654.49 263.4 656.41 265.82 657.87 268.63C661.24 275.15 663.19 285.42 659.5 292.05C658.17 290.46 656.83 288.87 655.5 287.28C657.38 298.73 655.13 311.02 654.25 322.5C653.51 332.27 653.18 342.07 652.48 351.85C652.19 356 652.47 360.34 651.79 364.45C650.33 373.35 643.05 381.48 635.81 386.34C632.38 388.64 628.39 389.82 624.48 390.98C622.2 391.65 617.94 393.57 615.61 392.77C614.39 392.35 614.79 391.66 613.48 391.5C606.39 397.39 598.65 395.8 590.32 397.5C590.75 392.31 592.97 386.02 593.13 381.5C593.25 378.23 592.21 374.77 591.97 371.5C590.99 358.32 588.93 344.7 590.16 331.5C590.67 326.11 591.52 320.7 592.78 315.43C593.13 313.96 593.47 310.2 595.52 310.02C596.82 309.91 597.78 311.62 598.5 312.47C600.24 307.25 605.59 307.05 610.4 305.5C602.95 303.61 596.16 304.84 589.88 298.61C585.98 294.74 585.25 287.17 583.4 282.16C579.07 270.46 574.1 258.17 567.28 247.69C569.35 247.69 571.43 247.69 573.5 247.69C572.37 245.8 571.24 243.91 570.11 242.02C573.12 242.02 576.13 242.02 579.14 242.02C576.14 240.62 573.1 240.44 569.79 239.59C567.23 238.94 565.7 236.96 563.38 236.1C561.29 235.31 558.69 235.42 556.5 234.99C552.69 234.25 548.89 232.83 545.42 231.09C529.61 223.15 518.32 204.45 521.29 186.58C521.85 183.22 523.43 180.5 524.74 177.5C519.98 174.45 516.46 169.97 512.39 166.11C508.15 162.09 503.24 158.27 498.17 155.35C490.1 150.69 481.55 147.84 472.39 146.31C468.51 145.66 464.51 145.59 460.82 144.5C482.44 129.76 517.7 132.44 539.8 144.66C545.35 147.73 559.63 155.88 559.99 162.5ZM534.5 172.1C532.42 173.57 530.33 175.03 528.25 176.5C539.1 180.66 549.26 185 561.19 183.5C552.29 179.7 543.4 175.9 534.5 172.1ZM430.3 210.5C425.71 214.63 418 216.6 412.51 220C401.99 226.51 392.93 235.23 385.7 245.23C373.4 262.28 372.65 278.18 364.57 296.11C362.06 301.69 358.55 306.54 354.97 311.46C349.03 319.64 341.44 326.7 334.12 333.62C331.26 336.32 327.87 338.8 325.43 341.9C315.44 354.59 309.44 372.49 302.51 387.04C301.87 388.4 300.81 389.38 300.14 390.68C295.35 400.02 291.68 410.56 287.8 420.35C286.22 424.34 284.3 428.32 283.47 432.5C287.54 429.36 290.99 424.82 294.74 421.24C297.69 418.42 301.61 415.73 303.98 412.4C305.51 410.25 306.34 407.43 307.6 405.1C310.88 399.02 315.07 393.35 320.08 388.58C335.5 373.9 355.47 372.83 375.5 370.81C381.81 370.17 388.32 368.27 394.64 368.5C392.42 372.63 382.41 380.72 378.45 384.95C367.97 396.17 360.32 408.38 346.2 415.68C338.84 419.48 330.63 421.59 322.46 422.72C317.8 423.36 312.19 422.82 307.7 424.24C303.13 425.7 296.46 432.11 292.9 435.42C286.8 441.07 279.58 447.58 275.44 454.9C272.04 460.91 268.84 474.4 266.84 481.45C264.98 488.03 261.72 496.71 262.5 503.37C267.62 497.15 274.7 492.38 279.53 486.02C282.27 482.39 283.87 477.86 286.62 474.14C293.28 465.14 302.97 458.29 313.82 455.42C325.17 452.43 335.99 454.37 347.52 454.56C354.36 454.67 361.74 453.05 368.35 454.5C362.65 458.97 356.35 462.53 350.97 467.47C341.77 475.9 333.63 485.11 322.19 490.64C315.32 493.97 307.14 496.35 299.5 496.77C294.98 497.02 289.4 495.46 285.05 496.55C282.22 497.26 279.38 499.83 277.12 501.58C271.14 506.2 262.2 514.8 259.51 521.98C258.13 525.67 258.55 530.13 257.5 533.92C253.39 532.78 249.27 531.64 245.16 530.5C245.3 528.24 245.82 525.84 245.68 523.57C245.3 517.69 237.88 501.97 233.39 498.08C230.42 495.5 226.19 493.87 222.94 491.55C215.93 486.53 210.24 479.9 206.29 472.22C194.36 448.98 205.45 422.63 211.5 399.27C214.3 402.15 217.65 413.67 220.14 418.36C226.89 431.08 236.96 442.55 240.72 456.68C242.36 462.87 243.18 469.1 242.82 475.5C242.58 479.83 241.77 484.13 242.22 488.48C242.91 495.09 246.82 501.12 249.5 507.12C252.74 499.61 253.96 488.94 256.35 480.75C262.37 460.08 271.62 438.53 268.69 416.55C266.2 397.87 253.48 386.54 254.63 365.5C255.36 351.99 260.8 339.63 265.67 327.23C269.75 316.83 273.42 305.95 278.5 296.01C281.21 299.27 281.44 310.47 282.94 315.52C288.75 335.05 296.94 353.33 291.53 374.04C289.88 380.32 286.97 386.72 284.01 392.48C281.93 396.52 278.73 400.68 277.61 405.13C276.88 408.07 277.45 411.49 277.37 414.5C277.3 417.28 276.94 419.92 277.5 422.62C280.72 413.95 284.38 405.24 288.42 396.91C289.55 394.6 291.75 392.4 292.69 390.22C293.8 387.65 293.36 384.23 294.63 381.18C299.42 369.65 305.66 358.66 311.24 347.5C311.2 346.24 310.3 346.08 310.28 344.68C310.27 342.68 314.19 336.78 315.24 334.72C319.21 326.89 323.37 318.86 325.76 310.38C330.54 293.47 332.55 275.81 340.48 259.97C356.07 228.84 395.15 204.68 430.3 210.5ZM820.5 271.24C826.14 275.71 832.54 291.58 835.96 298.53C843.07 313.01 852.41 326.99 853.68 343.51C854.55 354.72 852.31 365.53 849.71 376.37C848.84 380 847.46 383.81 846.97 387.5C846.09 394.21 847.86 401.73 848.06 408.5C848.29 416.27 847.01 425.1 848.5 432.66C850.96 429.01 854.36 424.46 855.78 420.29C856.9 417.02 856.77 413.16 857.4 409.76C858.99 401.24 862.14 392.56 866.6 385.12C874.77 371.49 886.73 363.87 899.32 354.86C905.97 350.09 911.98 344.5 918.5 339.59C919.44 346.26 915.2 354.33 913.5 361.01C908.95 378.95 904.59 397.8 890.35 410.87C885.4 415.42 879.72 419.19 873.79 422.32C870.53 424.04 865.93 425.31 863.19 427.72C860.7 429.9 858.68 433.6 856.89 436.36C852.35 443.35 847.93 450.76 845.24 458.7C843.13 464.9 842.08 471.45 840.35 477.76C838.49 484.58 834.47 492.59 834.5 499.62C839.57 495.05 847.13 490 851.26 484.78C852.78 482.87 853.4 480.23 854.59 478.09C857.93 472.12 862.17 466.37 867.25 461.75C882.96 447.5 900.53 445.76 920.32 441.67C928.42 440 940.05 435.63 947.99 436.5C942.47 443.58 934.71 449.44 928.53 456.05C915.88 469.59 908.85 480.63 891.03 488.51C884.3 491.48 876.81 493.12 869.5 493.82C865.47 494.2 860.69 493.36 856.8 494.43C853.83 495.24 850.11 498.26 847.61 500.07C840.98 504.88 833.73 510.87 829.53 518.02C825.13 525.5 822.3 534.35 818.76 542.28C815.73 549.05 811.95 555.62 809.5 562.61C812.08 561.77 826.06 553.42 828.02 551.51C829.97 549.59 831.32 546.75 833.08 544.61C838.05 538.59 843.49 533.75 850.1 529.58C868.16 518.17 888.37 521.5 908.5 521.72C917.33 521.81 927.44 519.69 935.98 521.5C931.4 526.47 923.7 529.57 918.14 533.6C901.54 545.62 885.74 558.07 865.2 562.57C858.51 564.03 850.99 565.02 844.13 564.48C840.17 564.16 834.85 561.94 830.98 562.54C823.56 563.7 805.38 575.4 801.05 581.61C797.39 586.87 795.04 593.69 792.36 599.5C787.79 599.43 784.5 600.41 780.14 601.5C783.26 592.13 788.4 583.14 792.76 574.27C799.19 561.21 805.38 547.98 811.15 534.62C816.38 522.54 821.62 509.82 820.68 496.5C820.2 489.53 818.7 481.64 814.89 475.65C807.52 464.1 796.35 458.95 789.64 444.85C781.41 427.58 784.52 414.51 783.67 396.5C783.22 387.15 780.14 376.32 780.5 367.36C784.85 369.37 794.7 383.55 798.4 388.14C809.66 402.15 820.63 414.74 824.54 432.86C826.2 440.55 826.5 448.68 825.73 456.5C825.31 460.77 824.09 465.22 824.13 469.5C824.17 475.42 826.48 481.96 827.5 487.8C830.96 482.93 832.87 471.78 834.35 465.72C839.33 445.33 843.31 413.34 837.44 393.1C832.95 377.66 821.68 365.35 818.21 349.44C814.86 334.03 819.88 319.77 821.08 304.5C821.57 298.21 821.67 291.8 821.22 285.5C820.89 280.81 819.85 275.87 820.5 271.24ZM469.38 290.5C465.28 291.65 461.67 295.32 457.27 296.67C454.09 297.65 450.43 298.95 447.18 299.53C443.57 300.18 440 299.57 436.38 300.5C438.58 301.17 440.79 301.83 442.99 302.5C442.15 304.17 441.32 305.83 440.48 307.5C444.3 305.65 448.34 305.26 452.24 303.71C458.99 301.02 464.67 295.87 469.38 290.5ZM642 435.5C622.31 434.97 607.27 450.31 590.5 457.99C591.83 454.92 593.17 451.84 594.5 448.77C578.21 461.93 562.45 476.33 547.28 490.79C542.71 495.15 531.61 504.18 529.46 509.5C545.11 498.41 560.13 486.41 575.82 475.36C582.25 470.83 593.7 462.34 600.91 460.29C600.91 461.86 600.91 463.43 600.91 464.99C611.67 452.41 626.86 442.11 642 435.5ZM419.55 447.5C419.28 451.91 419.28 455.99 417.77 460.33C414.76 468.96 409.1 476.86 410.5 486.46C411.46 483.05 414.12 472.48 417.5 480.27C418.14 477.37 418.39 474.41 419.01 471.52C420.66 463.86 424.39 454.77 419.55 447.5ZM749.5 478.99C749.61 480.84 750.24 482.59 750.36 484.5C751.03 494.42 748.62 499.02 754.86 508.05C754.86 499.53 754.86 491.02 754.86 482.5C752.36 484.73 751.55 480.93 749.5 478.99ZM596.11 494.5C591.3 496.49 582.47 508.76 578.88 513.34C568.28 526.88 560.3 542.18 551.25 556.74C547.41 562.92 542.72 568.42 538.81 574.5C544.26 573.19 549.32 567.45 553.5 563.73C553.7 568.67 549.86 573.81 547.92 578.48C542.78 590.85 537.87 603.45 531.97 615.49C529.47 620.6 524.19 626.67 523.5 632.14C525.17 630.93 526.83 629.72 528.5 628.51C529.36 636.76 527.74 645.1 529.05 653.5C530.53 663.02 534.18 671.76 534.19 681.5C534.2 687.74 531.57 693.32 531.5 699.01C533.83 695.08 536.17 691.15 538.5 687.22C542.51 695.97 544.12 705.92 544.18 715.5C544.2 719.36 542.95 723.28 543.5 726.93C545.57 722.55 547.76 718.2 548.75 713.43C549.59 709.37 549.52 705.14 550.5 701.18C556.87 704.54 565.36 711.44 572.79 710.5C564.41 704.82 553.77 697.06 549.71 687.5C550.31 686.13 550.9 684.77 551.5 683.4C550.83 680.15 550.17 676.89 549.5 673.64C548.17 675.48 546.83 677.32 545.5 679.17C530.27 668.18 535.56 636.82 539.61 621.22C541.12 615.42 543.47 607.47 548.4 603.92C548.4 605.58 548.4 607.24 548.4 608.9C553.85 600.9 557.65 591.75 563.16 583.68C573.39 568.7 585.28 555.25 598.14 542.5C594.8 542.81 591.28 545.89 588.25 547.73C579.26 553.18 571.06 559.75 563.5 567.03C563.41 562.39 568.75 551.23 570.67 546.22C574.94 535.03 579.17 523.94 584.81 513.33C588.26 506.86 592.73 500.93 596.11 494.5ZM246.96 542.5C252.77 542.65 259.13 545.87 264.67 547.77C279.87 552.99 305 562.03 311.55 577.9C318.15 593.88 314.24 612.95 309.4 628.83C305.05 643.09 296.81 657.36 296.44 672.53C296.3 677.97 297.18 687.01 303.74 688.68C314.03 691.29 319.46 672.81 321.36 665.76C326.34 647.16 330.32 627.59 331.57 608.36C332.18 599.01 331.37 589.74 331.5 580.43C338.66 582.42 345.96 588.18 352.13 592.4C363.46 600.16 373.47 608.69 383.65 617.86C391.15 624.61 398.55 632.34 400.84 642.56C404.07 656.99 398.53 671.72 391.82 684.33C382.36 702.12 367.57 716.08 358.75 734.26C356.15 739.63 351.86 750.83 358.49 755.03C367.92 761 378.86 745.02 382.9 738.37C388.14 729.73 392.56 720.69 397.35 711.81C401.92 703.31 406.72 694.89 410.48 685.98C412.69 680.77 414.87 675.49 416.54 670.08C417.57 666.74 418.13 663.3 419.5 660.09C425.45 665.25 430.47 676.24 434.26 683.26C447.35 707.5 461.5 746.07 446.46 771.98C441.58 780.39 434.66 787.79 426.29 792.8C419.54 796.84 411.79 799.17 405.49 803.98C401.67 806.9 394.38 813.88 398.4 819.09C401.63 823.28 408.74 820.94 412.73 819.26C420.4 816.01 427.52 811.65 434.35 806.89C437.95 804.37 441.45 800.75 445.5 799.32C444.58 808.48 436.76 821.41 431.38 828.86C428.99 832.18 425.1 835.33 423.5 838.93C429.53 837.79 435.57 836.64 441.6 835.5C439.48 847.18 432.1 859.27 425.55 869.06C422.42 873.73 415.53 879.55 415.5 885.16C410.98 889.38 405.08 890.78 398.93 889.53C396.2 888.97 393.76 887.56 391.07 887.5C395.95 894.83 400.83 902.17 405.71 909.5C404.19 912.81 401.6 916.24 398.5 918.01C391.99 904.11 383.28 891.31 375.16 878.33C371.74 872.88 369.38 867.09 365.84 861.68C362.76 856.99 354.5 846.11 352.97 841.45C351.77 837.77 352.43 833.25 353.19 829.55C356.29 814.5 367.01 801.64 377.01 790.52C381.26 785.79 390.12 777.64 391.5 771.82C373.97 791.23 353.93 804.88 347.5 831.99C342.1 827.87 336.75 816.65 332.99 810.53C328.69 803.53 324.25 796.61 319.94 789.61C318.22 786.83 315.07 783.48 314.48 780.21C313.11 772.56 316.43 763.5 318.76 756.34C324.95 737.26 334.74 719.38 342.41 700.87C345.35 693.76 349.75 685.49 349.5 677.78C340.06 702.51 326.02 725.09 316.13 749.62C313.08 757.17 311.54 765 309.5 772.81C305.62 768.46 302.67 762.91 299.51 757.99C292.37 746.84 284.97 735.84 277.8 724.71C274.81 720.06 266.1 709.17 265.07 704.46C262.99 694.92 265.13 681.08 266.96 671.5C267.93 666.43 270.28 660.82 269.5 655.87C266.17 669.71 262.83 683.56 259.5 697.4C235.17 659.79 210.83 622.17 186.5 584.56C186.45 588.21 188.89 591.4 190.71 594.76C194.42 601.65 198.52 608.33 202.39 615.13C212.26 632.47 222.39 649.67 232.74 666.73C237.68 674.86 243.09 682.98 247.32 691.5C243.42 691.59 239.36 690.05 235.45 689.2C226.53 687.27 216.01 684.95 206.93 686.5C217.22 687.51 227.73 689.98 237.72 692.68C241.63 693.73 247.05 694.6 250.29 697.2C252.39 698.89 253.66 702.12 255.1 704.36C258.76 710.04 262.52 715.67 266.02 721.45C275.17 736.61 285.63 751.02 294.26 766.5C284.59 767.38 274.51 765.3 264.66 766.39C248.65 768.18 233.35 773.34 217.44 775.68C206.31 777.33 195.66 777.15 184.5 777.38C190.19 779.63 198.77 779.22 205.5 779.3C226.46 779.54 246.76 773.83 267.5 772C277.66 771.11 289.92 769.83 299.23 775.3C303.17 777.62 307.28 786.59 309.92 790.62C316.29 800.32 322.28 810.29 328.34 820.19C331.07 824.66 334.15 828.78 336.48 833.5C321.23 834.35 312.99 837.06 299.28 843.5C303.27 843.45 306.91 841.61 310.72 840.28C319.44 837.23 329.69 834.93 338.56 838.84C344 841.24 350.78 855.89 354.19 861.31C367 881.69 379.4 902.44 391.07 923.5C386.55 927.66 382.02 931.81 377.5 935.97C374.5 929.82 371.5 923.67 368.5 917.52C365.39 924.24 358.68 931.58 350.55 929.87C347.9 929.31 346.57 928.75 345.5 926.29C337.83 928.42 326.34 925.59 317.5 926.63C312.97 927.17 308.11 927.86 303.8 929.38C292.28 933.42 285.4 939.06 272.38 934.5C284.7 924.46 298.15 914.86 305.91 900.4C308.74 895.14 312.38 884.99 304.28 882.26C297.89 880.11 290.75 884.53 286.36 888.87C282.8 892.39 280.01 896.49 276.67 900.18C269.6 907.99 259.95 913.8 250.25 917.72C215.41 931.83 190.75 907.51 171.39 882.14C165.46 874.37 159.35 866.21 154.89 857.5C161.46 855.57 174.22 856.98 182.45 855.75C194.71 853.91 206.64 850.44 218.53 847.04C225.71 845 233.05 843.61 240.25 841.66C249.06 839.28 266.14 832.64 263.63 820.77C261.74 811.88 249.61 810.74 242.5 811.81C233.25 813.2 225.63 817.82 217.41 821.9C208.76 826.2 199.6 829.81 190.07 831.51C176.09 834 155.89 834.48 143.75 825.73C138.31 821.81 135.11 815.3 131.92 809.61C122.88 793.47 116.08 770.03 113.57 751.77C112.5 744.05 110.23 733.93 112.5 726.41C119.34 729.57 125.89 733.02 133.05 735.47C151.04 741.62 171.5 744.7 190.5 744.96C198.23 745.06 217.18 744.36 218.08 733.5C218.86 724.14 206.86 719.55 199.44 718.25C187.67 716.19 175.39 718.17 163.5 717.84C152.59 717.54 140.8 715.05 130.79 710.66C124.86 708.06 117.79 703.89 114.28 698.23C110.69 692.42 111.03 684.06 110.63 677.51C109.56 660.03 110.3 639.2 114.5 622.21C119.82 624.89 124.22 630.73 129.16 634.38C139.15 641.74 151.1 647.63 162.84 651.59C168.4 653.46 180.19 657.37 183.73 650.24C187.6 642.43 177.94 634.65 172.01 631.49C165.88 628.23 159.11 626.48 152.79 623.66C142.09 618.89 125.29 608.55 122.1 596.45C119.8 587.67 123.6 578.32 126.65 570.21C130.85 559.04 136.46 548.44 140.79 537.32C143.57 530.19 145.23 522.56 148.02 515.5C151.3 515.58 154.35 517.03 157.55 517.84C162.17 519 166.88 519.86 171.54 520.8C197.49 526.04 229.51 529.06 236.63 559.77C239.94 574.05 236.26 588.15 237.1 602.5C237.4 607.77 238.46 616.04 243.26 619.26C252.41 625.41 255.56 608.06 256.16 602.5C258.37 581.73 252.58 562.18 246.96 542.5ZM336.5 527.04C338.26 527.62 340.26 527.8 341.93 528.57C345.78 530.33 348.87 534.98 351.05 538.4C359.45 551.56 361.06 568.43 357.5 583.39C355.76 582.43 354.03 581.46 352.29 580.5C351.64 574 350.77 563.88 344.67 559.86C340.7 557.23 334.9 557.67 331.5 554.01C330.19 552.6 330.06 550.82 329.41 549.1C328.18 545.81 326.06 542.98 323.65 540.5C320.24 540.91 306.07 537.61 302.5 536.32C298.17 539.13 293.83 541.94 289.5 544.75C283.31 542.1 274.62 540.72 269.63 536.5C273.32 532.7 277.06 528.69 282.01 526.53C283.92 525.7 286.21 525.49 288.01 524.49C289.4 523.71 290.44 522.16 291.71 521.17C294.63 518.89 299.77 516.33 303.55 516.27C305.39 516.25 306.06 517.3 307.68 517.72C310.71 518.49 314.37 517.8 317.5 518.07C322.53 518.49 336.51 520.76 336.5 527.04ZM983.6 575.5C981.31 579.6 974.1 581.91 969.94 584.43C959.88 590.52 950.38 597.51 940.89 604.42C917.66 621.33 895.87 640.17 872.82 657.35C855.33 670.38 835.88 682.05 822.3 699.5C827.99 698.9 834.64 692.08 839.1 688.58C851.25 679.06 862.95 668.62 876.21 660.66C912.75 638.73 959.17 631.8 1000.89 639.5C997.9 642.32 991.77 642.88 987.61 644.2C978.17 647.19 968.72 650.21 959.61 654.11C934.69 664.79 909.82 676.57 884.31 685.75C866.49 692.15 848.31 696.76 830.91 704.42C826.65 706.3 822.09 708.09 818.19 710.66C811.89 714.82 806.77 721.1 801.58 726.5C806.62 726.85 812.77 723.2 817.5 720.99C829.79 715.24 841.18 707.71 853.56 702.08C888.03 686.4 922.77 683.94 959.72 691.63C968.55 693.47 988.47 697.88 995.03 703.5C988.11 704.86 980.58 704.62 973.5 705.23C963.47 706.09 953.39 708.18 943.55 710.21C913.21 716.48 883.48 725.84 852.5 728.79C836.15 730.35 820.12 730.83 804.37 735.77C799.15 737.4 792.27 739.1 787.83 742.36C784.57 744.75 781.88 748.7 779.17 751.69C776.65 754.46 773.9 757.23 772.1 760.5C776.39 759.94 780.7 757.84 784.81 756.39C799.68 751.16 813.69 743.82 828.88 739.45C868.66 728 907.51 731.4 945.73 746.73C955.12 750.49 973.77 758.78 979.99 766.5C973.97 766.8 967.57 764.79 961.5 764.17C950.18 763 938.87 762.95 927.5 763.03C895.78 763.25 864.21 767.36 832.5 767.37C813.31 767.38 794.19 763.89 775.31 768.69C771.32 769.7 765.73 770.46 762.27 772.78C760.28 774.12 758.83 777 757.41 778.9C753.58 784.02 749.41 789.04 746.08 794.5C752.29 794.31 764.44 789.5 770.68 787.24C783.05 782.76 795.82 778.7 808.8 776.44C847.16 769.78 886.72 781.28 919.71 800.78C929.36 806.48 947.69 818.66 952.87 828.5C947.49 828.58 941.38 824.86 936.06 823.47C926.07 820.86 915.78 819.05 905.55 817.64C872.39 813.06 838.59 813.34 805.56 807.73C788.37 804.8 770.87 799.46 753.38 802.64C748.77 803.48 741.63 804.46 737.71 807.18C735.38 808.8 733.93 812.58 732.45 814.95C728.71 820.93 723.97 827.02 721.3 833.5C724.62 832.61 727.79 830.7 731.1 829.57C745.6 824.58 760.35 818.63 775.57 816.33C815.06 810.37 855.47 828 885.16 853.36C894.35 861.21 902.61 869.86 910.14 879.32C913.09 883.03 917.45 887.91 917.62 892.5C913.25 890.47 909.13 887.8 904.78 885.69C894.88 880.9 884.7 876.77 874.27 873.29C852.4 865.97 829.6 862.04 807.73 854.7C794.55 850.28 781.29 846.07 767.84 842.57C760.1 840.56 751.57 837.99 743.5 838.56C732.03 839.38 722.77 845.07 712.18 848.5C710.1 856.89 704.16 865.03 700.33 872.8C692.71 888.29 684.9 904.49 679.43 920.88C677.27 927.37 672.85 938.19 673.5 944.78C690.95 907.14 715.16 868.62 760.5 864.04C768.87 863.19 778.68 862.25 786.64 865.5C784.16 867.17 781.69 868.83 779.21 870.5C786.33 870.97 793.37 870.65 800.45 872.2C815.21 875.45 828.48 885.04 838.45 896.06C842.44 900.47 849 907.34 849.5 913.32C839.55 909.41 829.36 905.67 818.5 905.75C809.73 905.82 798.45 908.98 789.56 910.5C787.99 911.8 789.48 912.38 788.23 913.66C783.31 918.66 764.62 915.62 758.19 917.5C760.64 918.83 763.08 920.17 765.52 921.5C759.94 926.49 750.69 928.95 743.74 931.5C747.58 932.26 751.54 931.79 755.5 932.02C762.99 932.47 769.89 933.38 777.35 931.72C783.48 930.35 789.07 926.66 795.51 926.4C824.11 925.23 845.11 938.85 860.52 961.96C865.19 968.96 870.83 977.09 872.06 985.5C866.83 984.53 861.75 981.51 856.45 980.19C847.48 977.97 837.92 977.63 829.27 974.29C825.11 972.68 821.8 968.78 817.87 967.5C818.75 970.01 819.62 972.51 820.5 975.02C803.49 972.09 785.45 966.03 774.5 952.05C770.01 951.75 765.85 950.1 761.43 949.27C756.48 948.34 751.53 948.14 746.5 948.3C729.94 948.84 714.58 955.29 698.71 959.5C703.64 960.55 708.48 959.36 713.5 959.14C718.12 958.94 722.91 959.83 727.47 959.51C729.18 959.39 730.88 958.57 732.55 958.19C738.29 956.88 743.48 957.13 749.21 958.41C753.94 959.46 758.73 961.27 763.04 963.47C764.03 963.97 766.97 965.13 766.94 966.52C766.9 967.71 765.26 968.12 764.5 968.63C773.33 973.09 788.13 980.94 793.21 989.5C783.38 989.74 773.44 988.29 763.5 988.72C747.94 989.39 733.17 992.17 717.55 989.72C708.65 988.32 700.88 984.06 692.5 981.1C692.62 981.54 693.94 983.7 693.7 984.22C693.12 985.51 683.24 987.6 681.5 987.92C669.14 990.22 654.79 991.29 642.5 988.63C644.44 985.58 647.56 983.2 649.78 980.28C655.12 973.23 658.49 964.43 658.5 955.57C656.36 957.89 656.18 957.79 653.5 956.5C650.79 971.15 638.68 984.59 624.21 988.61C617.12 990.59 609.78 990.22 602.5 990.07C598.19 989.98 593.69 990.3 589.47 989.5C594.7 982.33 606.48 973.29 606.5 963.76C599 972.59 589.75 981.59 579.23 986.72C567.82 992.29 554.96 993.61 542.69 996.33C531.91 998.72 521.53 1003.31 511.37 1007.5C511.23 1000.38 520.6 986.61 524.73 980.25C527.98 975.23 531.39 970.33 535.36 965.83C536.73 964.27 538.85 963.05 540.04 961.41C540.75 960.42 540.87 959.14 541.56 958.09C542.95 955.99 545.37 954.37 547.24 952.72C558.88 942.47 573.56 936.9 588.79 934.43C595.73 933.31 602.62 934.65 609.5 934.55C603.45 931.78 597.14 929.13 590.49 928.11C584.85 927.25 579.11 928.29 573.69 927.5C590.2 908.25 629.01 893.24 648.45 916.07C654.72 923.42 655.85 932.21 657.5 941.34C665.56 920.47 661.46 897.25 657.53 875.94C656.97 872.95 656.13 869.6 656.36 866.53C656.43 865.49 656.95 864.52 656.92 863.49C656.84 859.9 654.79 856.01 654.42 852.32C654.3 851.17 653.86 844.86 654.84 844.33C655.85 843.77 656.95 846.84 657.5 847.58C656.87 830.12 658.12 812.45 662.9 795.46C664.31 790.42 665.14 783.12 668.5 779.18C669.97 783.83 670.83 788.67 672.23 793.35C677.5 810.94 682.82 828 683.86 846.5C684.31 854.45 683.69 862.56 682.68 870.44C681.94 876.13 679.94 882.28 680.5 887.94C684.77 878.29 689.21 868.71 693.58 859.11C695.57 854.76 698.88 850.35 699.27 845.5C701.01 824.29 688.94 798.02 685.13 776.48C681.07 753.52 684.25 729.85 689.82 707.45C691.93 698.97 694.13 690.55 696.58 682.16C697.56 678.83 698.11 674.75 700.5 672.3C701.62 675.93 701.76 679.64 702.3 683.4C703.46 691.37 704.83 699.39 706.35 707.3C710.7 729.9 717.2 752.25 716.09 775.5C715.53 787.26 713.36 798.99 710.86 810.47C709.21 818 706.66 825.53 708.5 833.17C712.69 825.74 717.17 818.47 721.73 811.25C723.86 807.88 727.05 804.37 728.3 800.55C730.78 792.94 729.5 781.46 729.09 773.5C728.15 755.44 726.04 737.71 728.36 719.63C733.41 680.33 754.84 637.64 783.5 610.35C784.43 614.63 781.79 619.7 780.47 623.95C778.06 631.73 776.04 639.65 774.28 647.6C770.33 665.34 768.73 683.42 765.66 701.31C763.32 714.97 759.44 728.22 754.63 741.21C750.47 752.44 744.43 763.02 741.01 774.51C739.78 778.64 737.76 782.91 738.5 787C743.78 779.35 749.59 772.11 755.13 764.66C756.9 762.28 759.59 760.02 760.88 757.34C763.29 752.34 763.84 745.94 765.25 740.59C769.46 724.69 771.56 708.45 776.23 692.62C787.27 655.16 811.8 619 843.76 596.28C851.99 590.43 865.45 580.49 875.17 578.5C873.07 583.36 868.67 587.69 865.53 592.05C859.78 600.02 854.28 608.28 849.26 616.74C834.58 641.49 823.11 668.33 806.33 691.8C798.25 703.11 789.81 714.3 782.84 726.34C780.4 730.56 776.37 735.61 776.5 740.38C782.92 733.67 789.41 727.03 795.83 720.32C798.4 717.64 801.51 715.24 803.62 712.16C809.4 703.75 813.21 693.48 817.92 684.42C823.68 673.35 830.82 662.87 838.59 653.11C862.68 622.83 895.72 600.97 931.53 587.1C947.73 580.83 966.15 575.8 983.6 575.5ZM183.5 579.8C184.17 581.62 184.83 583.44 185.5 585.27C184.83 583.44 184.17 581.62 183.5 579.8ZM524.5 726.5C521.8 733.86 521.07 741.9 518.82 749.42C513.12 768.45 504.98 788.07 493.7 804.5C498.01 804.18 501.65 800.1 505.5 798.02C498.93 814.84 492.36 831.67 485.79 848.5C490.09 846.6 497.26 835.09 500.11 830.64C509.08 816.64 516.26 802.25 522.36 786.81C524.47 781.48 527.64 776.09 528.75 770.5C525.33 774.05 521.92 777.6 518.5 781.14C518.01 774.51 521.33 766.59 522.45 759.87C524.28 748.99 525.11 737.52 524.5 726.5ZM757.41 893.5C751.81 893.05 745.65 896.65 740.48 898.94C725.99 905.37 712.79 913.83 701.56 925.08C697.73 928.93 690.01 935.01 689.5 940.28C709.22 921.23 731.62 903.43 757.41 893.5ZM343.32 939.5C344.71 939.31 345.18 938.41 346.49 938.23C350.02 937.74 362.82 944.25 366.43 946.08C369.75 947.76 373.5 949 374.85 952.5C372.07 954.31 357.05 960.98 353.98 961.47C352.14 961.77 350.27 961.08 348.5 960.66C348.54 961.04 348.81 962.94 348.68 963.29C348.09 964.89 340.34 967.56 338.57 968.15C337.03 968.67 335.18 969.49 333.52 969.33C332.42 969.22 331.81 968.32 330.69 968.34C328.81 968.38 326.11 970.13 324.24 970.65C320.38 971.72 316.47 972.51 312.5 973.06C311.13 973.25 303.03 974.32 302.58 973.46C302.32 972.97 303.92 971.75 304.15 971.5C300.97 971.36 297.78 972.48 294.47 972.54C285.47 972.71 276.61 972.2 267.63 973.35C261.84 974.09 250.11 977.52 245.21 976.5C255.94 963.95 270.31 954.73 285.06 947.56C287.67 946.29 290.77 945.83 293.28 944.58C294.27 944.08 294.86 943.02 295.88 942.46C310.03 934.72 328.42 934.49 343.32 939.5Z" fill="#3a3939" fill-rule="evenodd" stroke="#3a3939" stroke-width="0.25" stroke-linejoin="round"/>
</svg>